<svg width="76" height="76" viewBox="0 0 76 76" fill="none" xmlns="http://www.w3.org/2000/svg">
<path d="M41.9064 0C46.1812 0.0113997 48.3509 0.0341992 50.2242 0.0873979L50.9614 0.113997C51.8125 0.144396 52.6523 0.182395 53.6668 0.227994C57.7098 0.41799 60.4685 1.05637 62.889 1.99495C65.3969 2.96013 67.5096 4.2673 69.6222 6.37625C71.5552 8.27518 73.0504 10.5731 74.0034 13.1097C74.942 15.5302 75.5803 18.289 75.7703 22.3359C75.8159 23.3466 75.8539 24.1864 75.8843 25.0414L75.9071 25.7786C75.9641 27.6481 75.9869 29.8179 75.9945 34.0928L75.9983 36.9275V41.9054C76.0076 44.6771 75.9784 47.4487 75.9109 50.2196L75.8881 50.9568C75.8577 51.8117 75.8197 52.6515 75.7741 53.6623C75.5841 57.7092 74.9382 60.4641 74.0034 62.8885C73.0504 65.425 71.5552 67.723 69.6222 69.6219C67.7234 71.5549 65.4255 73.0501 62.889 74.0032C60.4685 74.9418 57.7098 75.5802 53.6668 75.7702L50.9614 75.8842L50.2242 75.907C48.3509 75.9602 46.1812 75.9868 41.9064 75.9944L39.0718 75.9982H34.0978C31.325 76.0079 28.5521 75.9788 25.7801 75.9108L25.0429 75.888C24.1409 75.8538 23.239 75.8145 22.3374 75.7702C18.2944 75.5802 15.5358 74.9418 13.1115 74.0032C10.5764 73.0496 8.27983 71.5544 6.38204 69.6219C4.44773 67.7234 2.95123 65.4254 1.99706 62.8885C1.05851 60.4679 0.42014 57.7092 0.23015 53.6623L0.116155 50.9568L0.0971569 50.2196C0.0271114 47.4488 -0.00455709 44.6771 0.00216132 41.9054V34.0928C-0.00835615 31.3211 0.0195121 28.5495 0.0857574 25.7786L0.112356 25.0414C0.142754 24.1864 0.180752 23.3466 0.22635 22.3359C0.41634 18.289 1.05471 15.534 1.99326 13.1097C2.94965 10.5721 4.44879 8.27406 6.38584 6.37625C8.28253 4.44418 10.5777 2.94901 13.1115 1.99495C15.5358 1.05637 18.2906 0.41799 22.3374 0.227994C23.3482 0.182395 24.1917 0.144396 25.0429 0.113997L25.7801 0.0911975C28.5509 0.0236837 31.3224 -0.00545172 34.094 0.00379963L41.9064 0ZM38.0002 18.9995C32.9614 18.9995 28.1289 21.0013 24.5659 24.5644C21.0029 28.1275 19.0012 32.9601 19.0012 37.9991C19.0012 43.0381 21.0029 47.8707 24.5659 51.4338C28.1289 54.9969 32.9614 56.9986 38.0002 56.9986C43.0391 56.9986 47.8716 54.9969 51.4346 51.4338C54.9976 47.8707 56.9993 43.0381 56.9993 37.9991C56.9993 32.9601 54.9976 28.1275 51.4346 24.5644C47.8716 21.0013 43.0391 18.9995 38.0002 18.9995ZM38.0002 26.5994C39.4972 26.5991 40.9796 26.8937 42.3628 27.4664C43.7459 28.039 45.0027 28.8785 46.0614 29.9369C47.1201 30.9953 47.96 32.2519 48.5331 33.6348C49.1062 35.0178 49.4013 36.5001 49.4016 37.9972C49.4018 39.4942 49.1072 40.9766 48.5346 42.3598C47.9619 43.743 47.1225 44.9998 46.0641 46.0586C45.0057 47.1173 43.7492 47.9572 42.3663 48.5303C40.9833 49.1034 39.501 49.3986 38.004 49.3988C34.9807 49.3988 32.0812 48.1978 29.9434 46.0599C27.8056 43.922 26.6046 41.0225 26.6046 37.9991C26.6046 34.9757 27.8056 32.0761 29.9434 29.9383C32.0812 27.8004 34.9807 26.5994 38.004 26.5994M57.953 13.2997C56.6933 13.2997 55.4852 13.8001 54.5944 14.6909C53.7037 15.5817 53.2033 16.7898 53.2033 18.0496C53.2033 19.3093 53.7037 20.5175 54.5944 21.4082C55.4852 22.299 56.6933 22.7994 57.953 22.7994C59.2127 22.7994 60.4209 22.299 61.3116 21.4082C62.2024 20.5175 62.7028 19.3093 62.7028 18.0496C62.7028 16.7898 62.2024 15.5817 61.3116 14.6909C60.4209 13.8001 59.2127 13.2997 57.953 13.2997Z" fill="#FFD376"/>
</svg>
