<svg width="76" height="76" viewBox="0 0 76 76" fill="none" xmlns="http://www.w3.org/2000/svg">
<path fill-rule="evenodd" clip-rule="evenodd" d="M22.8 0C10.2079 0 0 10.2079 0 22.8V53.2C0 65.7921 10.2079 76 22.8 76H53.2C65.7921 76 76 65.7921 76 53.2V22.8C76 10.2079 65.7921 0 53.2 0H22.8ZM56.894 16.8675C56.2242 16.7768 55.5423 16.8672 54.9194 17.1294L11.8123 35.2797C8.8074 36.5452 8.65363 40.8912 11.8148 42.2021C14.1542 43.1726 17.0204 43.9692 20.111 44.4835C21.8051 44.7658 23.2218 44.4835 25.9393 42.8298C29.0198 40.9543 38.337 34.2916 44.1401 29.9103C46.477 28.1457 47.3794 29.2523 45.4005 31.1707C44.7145 31.8351 43.9584 32.5612 43.1627 33.3254C38.1107 38.1772 31.4602 44.5641 30.9811 46.4523C30.3357 49.0085 35.5867 52.6007 37.3009 53.7225C40.7293 55.9636 44.5409 58.1114 47.1072 59.5054C50.1751 61.1717 53.8455 59.2533 54.4001 55.9081L60.1174 21.2283C60.2272 20.5614 60.1561 19.8773 59.9117 19.2471C59.6672 18.617 59.2584 18.0639 58.7277 17.6454C58.1969 17.2269 57.5637 16.9583 56.894 16.8675Z" fill="#2E67B2"/>
</svg>
