<svg width="110" height="160" viewBox="0 0 110 160" fill="none" xmlns="http://www.w3.org/2000/svg">
<path d="M77.4217 109.285C73.0871 97.4656 52.1489 94.6726 49.6701 94.3749L76.7966 115.91C78.1548 114.549 78.5587 112.371 77.4217 109.285Z" fill="#A5D8A6"/>
<path d="M76.7799 116.168L49.5304 94.4063C49.3788 94.386 49.2872 94.3789 49.2872 94.3789C48.8543 99.7687 53.4577 106.937 53.4577 106.937C59.2415 116.658 72.5674 120.37 76.7818 116.155L76.7799 116.168Z" fill="#6A906E"/>
<g opacity="0.38" style="mix-blend-mode:screen">
<path d="M52.5814 97.4423C54.9251 97.8167 58.7938 98.5859 62.7162 100.011C72.312 103.49 73.8355 107.726 74.3453 109.125C75.1135 111.251 74.9787 112.84 73.9597 113.87C73.9072 113.911 73.8677 113.969 73.8152 114.01C72.2662 115.386 69.0078 115.459 65.5356 114.209C61.6112 112.797 58.2006 110.035 56.1965 106.629L56.1595 106.568L56.1226 106.508C56.1226 106.508 53.0923 101.657 52.5814 97.4423Z" fill="#6A906E"/>
</g>
<g opacity="0.28" style="mix-blend-mode:multiply">
<path d="M59.9534 113.897C54.6654 103.656 49.4503 94.3582 73.5158 103.55C65.9132 96.4399 51.7142 94.61 49.6935 94.3844C49.542 94.3649 49.4503 94.3583 49.4503 94.3583C48.9918 99.8144 53.5644 107.037 53.5644 107.037C55.2098 109.833 57.4723 112.126 59.9553 113.884L59.9534 113.897Z" fill="#6A906E"/>
</g>
<path d="M44.8529 89.112C51.5957 96.8454 60.1428 103.144 68.9028 108.968C60.4464 102.968 52.1241 96.4096 45.7575 88.6216C45.3455 88.0295 44.3755 88.5462 44.8529 89.112Z" fill="#8FD096"/>
<path d="M45.5993 140.705C57.3866 133.125 44.0563 114.149 42.4307 111.922L36.507 142.309C39.3663 143.04 42.5198 142.683 45.5993 140.705Z" fill="#A5D8A6"/>
<path d="M37.5706 142.915L43.4426 112.613C43.3488 112.468 43.277 112.398 43.277 112.398C36.0875 113.763 30.646 119.993 30.646 119.993C22.926 128.069 28.859 140.67 37.5706 142.915Z" fill="#6A906E"/>
<g opacity="0.38" style="mix-blend-mode:screen">
<path d="M41.4691 115.966C42.8124 118.078 44.8234 121.597 46.0945 125.384C49.1982 134.653 45.1766 137.315 43.8528 138.197C41.841 139.534 39.7913 139.944 37.7671 139.425C37.6746 139.404 37.5822 139.384 37.4917 139.35C34.6278 138.482 32.0386 135.754 30.9117 132.391C29.6252 128.601 30.4055 124.824 33.0325 122.014L33.0711 121.968L33.1097 121.923C33.1097 121.923 36.7275 117.791 41.4845 115.969L41.4691 115.966Z" fill="#6A906E"/>
</g>
<g opacity="0.28" style="mix-blend-mode:multiply">
<path d="M27.4811 127.162C35.7214 119.525 42.8922 112.249 49.9789 135.134C52.7578 126.572 44.2935 114.198 43.0491 112.457C42.9603 112.317 42.8922 112.249 42.8922 112.249C36.0462 113.61 30.85 119.69 30.85 119.69C28.7519 121.936 27.6945 124.548 27.4792 127.175L27.4811 127.162Z" fill="#6A906E"/>
</g>
<path d="M18.8696 109.889C32.574 113.686 43.328 99.6486 44.5649 97.9672L12.3359 105.462C13.21 107.29 15.2915 108.896 18.8696 109.889Z" fill="#A5D8A6"/>
<path d="M12.5158 105.253L44.6577 97.8102C44.7358 97.6988 44.7749 97.6431 44.7749 97.6431C39.4948 94.1645 30.5514 93.3607 30.5514 93.3607C18.5846 91.9491 9.84458 99.6628 12.5158 105.253Z" fill="#6A906E"/>
<g opacity="0.38" style="mix-blend-mode:screen">
<path d="M40.4631 98.2889C39.1823 99.8346 36.917 102.286 33.9583 104.415C26.7439 109.6 21.8912 108.267 20.3042 107.825C17.8703 107.157 16.3101 106.12 15.6778 104.766C15.6404 104.705 15.62 104.635 15.5976 104.578C14.8089 102.615 15.9841 100.118 18.5966 98.24C21.5404 96.1082 25.6346 95.1708 29.8264 95.6525L29.9011 95.669L29.9778 95.6728C30.0376 95.6861 36.0263 96.238 40.4762 98.3048L40.4631 98.2889Z" fill="#6A906E"/>
</g>
<g opacity="0.28" style="mix-blend-mode:multiply">
<path d="M21.0477 93.8634C33.3927 95.8638 44.7538 97.3681 26.2118 110.226C36.2907 108.63 43.6341 98.9439 44.6331 97.5528C44.7123 97.4382 44.7519 97.3809 44.7519 97.3809C39.431 93.8332 30.4049 93.0456 30.4049 93.0456C26.9496 92.6486 23.7703 93.0136 21.0477 93.8634Z" fill="#6A906E"/>
</g>
<path d="M19.5415 86.3532C36.0076 90.7176 48.5123 73.7802 49.9545 71.7491L11.6496 81.148C12.7387 83.3344 15.2494 85.2194 19.5565 86.3566L19.5415 86.3532Z" fill="#A5D8A6"/>
<path d="M11.8481 80.9011L50.0426 71.5706C50.1374 71.4505 50.1801 71.3701 50.1801 71.3701C43.8042 67.2809 33.0937 66.4358 33.0937 66.4358C18.7787 64.9114 8.51925 74.2433 11.85 80.8887L11.8481 80.9011Z" fill="#6A906E"/>
<g opacity="0.38" style="mix-blend-mode:screen">
<path d="M45.0659 72.2194C43.5687 74.084 40.9198 77.0445 37.4481 79.6C28.9712 85.8777 23.1303 84.3381 21.2083 83.8305C18.2879 83.0607 16.3929 81.8435 15.5928 80.2332C15.5571 80.1602 15.5214 80.0871 15.4876 80.0015C14.501 77.6599 15.8542 74.67 18.9142 72.3869C22.3727 69.8155 27.2358 68.6381 32.2812 69.167L32.3561 69.1838L32.4498 69.1787C32.5247 69.1954 39.6974 69.7834 45.0527 72.2034L45.0659 72.2194Z" fill="#6A906E"/>
</g>
<g opacity="0.28" style="mix-blend-mode:multiply">
<path d="M21.7641 67.1476C36.5645 69.3923 50.1727 71.0532 28.3273 86.6145C40.3389 84.5974 48.8693 72.9337 50.0335 71.259C50.1295 71.1357 50.1727 71.0532 50.1727 71.0532C43.7404 66.8816 32.9251 66.0458 32.9251 66.0458C28.7983 65.6061 25.0046 66.0842 21.7659 67.1348L21.7641 67.1476Z" fill="#6A906E"/>
</g>
<path d="M20.1309 78.2001C31.6788 75.3077 43.3381 72.5947 55.1678 70.3838C55.862 70.2647 55.4708 69.2882 54.7859 69.448C43.045 71.9883 31.5397 75.0062 20.129 78.2126L20.1309 78.2001Z" fill="#8FD096"/>
<path d="M92.2716 88.8212C91.0574 74.2771 66.753 65.1603 63.8652 64.1191L89.2532 96.0999C91.3579 94.9634 92.5877 92.6147 92.2716 88.8212Z" fill="#A5D8A6"/>
<path d="M89.314 96.3366L63.8006 64.1473C63.6215 64.0798 63.5167 64.0426 63.5167 64.0426C61.1727 69.9648 64.2819 79.332 64.2819 79.332C67.972 91.8894 82.7983 99.8616 89.2988 96.3332L89.314 96.3366Z" fill="#6A906E"/>
<g opacity="0.38" style="mix-blend-mode:screen">
<path d="M66.3891 68.4027C69.0783 69.5005 73.47 71.4858 77.7237 74.2062C88.1031 80.8768 88.5271 86.0462 88.6703 87.7565C88.8728 90.3523 88.1965 92.1017 86.6336 92.95C86.5655 92.9875 86.4823 93.0215 86.4143 93.0589C84.0968 94.146 80.1665 93.2957 76.385 90.8804C72.1313 88.16 68.9658 84.0874 67.6772 79.6999L67.6561 79.629L67.6351 79.5582C67.6351 79.5582 65.6064 73.2592 66.3891 68.4027Z" fill="#6A906E"/>
</g>
<g opacity="0.28" style="mix-blend-mode:multiply">
<path d="M69.8952 88.6954C66.9459 75.8399 63.7804 64.0434 89.5309 81.1496C82.7819 71.101 66.3961 64.9784 64.0624 64.1468C63.8845 64.0801 63.7804 64.0434 63.7804 64.0434C61.4381 69.9502 64.5094 79.2719 64.5094 79.2719C65.554 82.8455 67.4994 86.0295 69.8952 88.6954Z" fill="#6A906E"/>
</g>
<path d="M61.4821 60.409C67.5836 68.9533 73.416 77.7305 80.9165 85.4945C73.7231 77.5593 68.2224 68.6562 62.4506 59.999C62.085 59.3978 61.054 59.8071 61.4821 60.409Z" fill="#8FD096"/>
<path d="M35.9382 59.2583C50.752 67.0465 68.7266 54.9006 70.8163 53.4219L29.8699 52.7283C30.2114 54.927 32.0838 57.2216 35.94 59.2461L35.9382 59.2583Z" fill="#A5D8A6"/>
<path d="M30.1881 52.0685L71.1062 52.7614C71.243 52.6659 71.3114 52.6182 71.3114 52.6182C66.3608 47.4407 56.0484 44.1512 56.0484 44.1512C42.3807 39.3904 29.1293 45.3215 30.1881 52.0685Z" fill="#6A906E"/>
<g opacity="0.38" style="mix-blend-mode:screen">
<path d="M65.9444 52.4171C63.8403 53.7398 60.2443 55.7875 55.9617 57.2857C45.4692 60.9369 40.2023 58.1193 38.4646 57.197C35.8154 55.7911 34.3568 54.2363 34.0981 52.5732C34.0795 52.492 34.0758 52.4141 34.0721 52.3361C33.8729 49.9665 36.1965 47.5872 39.9935 46.2519C44.2761 44.7537 49.4871 44.8606 54.3056 46.5643L54.38 46.5807L54.4674 46.6128C54.5418 46.6292 61.4421 48.907 65.9593 52.4204L65.9444 52.4171Z" fill="#6A906E"/>
</g>
<g opacity="0.28" style="mix-blend-mode:multiply">
<path d="M44.3131 41.9804C58.2948 47.6914 71.2948 52.578 44.4029 61.5059C57.028 62.6106 69.362 53.9896 71.0842 52.7417C71.2234 52.6411 71.2929 52.5908 71.2929 52.5908C66.2657 47.1658 55.7857 43.7361 55.7857 43.7361C51.816 42.3111 47.8802 41.8151 44.3112 41.9931L44.3131 41.9804Z" fill="#6A906E"/>
</g>
<path d="M38.0984 52.4692L72.6405 53.2884C73.3501 53.3149 73.2534 52.3881 72.5273 52.3704L38.0984 52.4692Z" fill="#8FD096"/>
<path d="M100.423 74.5423C84.4746 67.5694 84.2984 45.7523 84.3368 43.1797L109.924 75.34C107.755 76.4189 104.586 76.3553 100.425 74.5295L100.423 74.5423Z" fill="#6A906E"/>
<path d="M109.845 75.08L84.3879 43.1347C84.3947 42.9784 84.3924 42.8859 84.3924 42.8859C91.9917 43.6099 101.161 49.7551 101.161 49.7551C113.666 57.6359 116.472 71.7816 109.844 75.0928L109.845 75.08Z" fill="#A5D8A6"/>
<g opacity="0.38" style="mix-blend-mode:screen">
<path d="M88.037 46.7441C88.1505 49.2078 88.5627 53.2893 89.8538 57.5832C93.0392 68.07 98.6596 70.5227 100.519 71.3283C103.336 72.5628 105.581 72.7667 107.187 71.9647C107.255 71.9272 107.339 71.8931 107.409 71.8427C109.585 70.5735 110.25 67.2795 109.107 63.4827C107.815 59.1888 104.573 55.1549 100.175 52.383L100.103 52.3401L100.031 52.2972C100.031 52.2972 93.8195 48.1869 88.0352 46.757L88.037 46.7441Z" fill="#6A906E"/>
</g>
<g opacity="0.28" style="mix-blend-mode:multiply">
<path d="M109.696 57.654C96.4807 50.1273 84.5599 42.8675 93.0967 69.1454C84.5948 59.9437 84.5194 45.2039 84.555 43.1182C84.5621 42.9608 84.5599 42.8675 84.5599 42.8675C92.1756 43.5728 101.354 49.7341 101.354 49.7341C104.933 51.9895 107.714 54.7667 109.711 57.6574L109.696 57.654Z" fill="#6A906E"/>
</g>
<path d="M83.5495 41.5807C89.4216 49.5538 95.3448 57.4983 101.831 65.1288C95.6348 57.3366 90.03 49.2499 84.4896 41.151C84.0919 40.5559 83.1025 41.0012 83.5325 41.5902L83.5495 41.5807Z" fill="#8FD096"/>
<path d="M116.513 22.3326C89.7113 34.431 54.8274 54.2269 44.9484 80.625C42.7696 86.3081 43.0579 92.6031 42.7369 98.647C42.4397 104.641 41.9566 110.609 41.1671 116.514C40.3316 122.409 39.4111 128.342 37.33 133.907C41.8271 122.859 43.2121 110.776 44.6094 98.9145C45.2548 93.021 45.2177 87.0399 47.6253 81.6111C49.817 76.2472 53.2248 71.399 57.2103 67.0019C73.5796 49.6127 96.695 37.7073 120.078 28.4179C124.504 26.7417 121.017 20.5626 116.528 22.3357L116.513 22.3326Z" fill="#8FD096"/>
<path d="M22.1893 103.147C30.0796 101.11 38.0276 99.546 45.6201 96.745C46.2572 96.4774 45.6851 95.5368 45.056 95.8467C37.8218 98.8677 29.7933 100.823 22.1893 103.147Z" fill="#8FD096"/>
</svg>
