<svg width="147" height="237" viewBox="0 0 147 237" fill="none" xmlns="http://www.w3.org/2000/svg">
<path d="M22.1078 96.7425C43.0538 102.653 61.4845 73.9125 63.5992 70.457L12.4473 88.783C13.6048 92.2861 16.6543 95.1935 22.1301 96.7425H22.1078Z" fill="#F26434"/>
<path d="M12.4473 88.7598L63.5992 70.4339C63.7328 70.2194 63.7996 70.1003 63.7996 70.1003C55.9421 63.8089 42.0299 63.237 42.0299 63.237C23.4657 61.8071 8.88582 78.0121 12.4251 88.7598H12.4473Z" fill="#F7A17B"/>
<g opacity="0.38" style="mix-blend-mode:screen">
<path d="M57.0325 71.7681C54.8511 74.9137 51.0447 79.942 46.2145 84.3746C34.3948 95.2414 26.9602 93.1444 24.5339 92.4533C20.8166 91.4047 18.5016 89.5697 17.6558 86.9721C17.6112 86.853 17.5889 86.7338 17.5444 86.6147C16.5428 82.8732 18.6574 77.8926 22.9312 73.9367C27.7392 69.4803 34.239 67.2164 40.7387 67.7168H40.85H40.9613C41.0503 67.7168 50.3325 68.1696 57.0325 71.7681Z" fill="#F7A17B"/>
</g>
<g opacity="0.28" style="mix-blend-mode:multiply">
<path d="M27.4695 65.786C46.39 68.3597 63.819 70.0994 33.6799 96.7423C49.484 92.6434 61.9047 73.2212 63.6187 70.433C63.7522 70.2185 63.819 70.0994 63.819 70.0994C55.9615 63.808 42.0494 63.2361 42.0494 63.2361C36.7517 62.831 31.7656 63.8557 27.4473 65.786H27.4695Z" fill="#F7A17B"/>
</g>
<path d="M75.2205 69.6701C59.0825 71.3382 43.4343 77.1768 28.5205 83.7779C39.6279 78.273 51.0914 73.5068 62.9779 70.2659C66.9623 69.2173 70.9468 68.2641 75.1093 67.7875C75.599 67.7398 76.0219 68.0972 76.0664 68.6215C76.1332 69.1696 75.7103 69.6463 75.2205 69.6463V69.6701Z" fill="#F26434"/>
<path d="M0.285748 19.7931C3.8695 44.0529 39.3509 44.2435 43.5579 44.1959L3.60243 5.35156C0.775499 8.66405 -0.649145 13.4779 0.285748 19.7931Z" fill="#F26434"/>
<path d="M3.63061 5.34938L43.5861 44.1937C43.8533 44.1937 43.9868 44.1937 43.9868 44.1937C46.5244 32.5881 40.9373 18.5517 40.9373 18.5517C34.1482 -0.560651 12.2895 -4.80256 3.6084 5.34938H3.63061Z" fill="#F7A17B"/>
<g opacity="0.38" style="mix-blend-mode:screen">
<path d="M39.4198 38.5707C35.4799 38.3801 29.0025 37.7843 22.6586 35.7825C7.12156 30.921 5.8528 22.3419 5.42987 19.506C4.78435 15.1927 5.51886 11.7849 7.61124 9.33029C7.70028 9.21113 7.81159 9.11581 7.90062 8.99666C11.0392 5.68417 16.693 4.65941 22.3469 6.39907C28.7131 8.3532 33.7215 13.3338 36.1032 20.0303L36.1477 20.1495L36.1922 20.2686C36.1922 20.2686 39.865 29.7533 39.4198 38.5707Z" fill="#F7A17B"/>
</g>
<g opacity="0.28" style="mix-blend-mode:multiply">
<path d="M32.0994 5.80273C37.9536 25.9875 44.0082 44.1942 5.34375 31.1588C16.2063 44.1228 40.1573 44.2419 43.5853 44.1943C43.8524 44.1943 43.9859 44.1943 43.9859 44.1943C46.5235 32.5886 40.9364 18.5523 40.9364 18.5523C38.9998 13.095 35.8168 8.85308 32.0772 5.80273H32.0994Z" fill="#F7A17B"/>
</g>
<path d="M63.9116 8.32871C48.9978 25.058 63.1771 56.2288 64.9133 59.8749L74.9968 3.13361C71.6356 2.514 67.807 3.94384 63.9116 8.32871Z" fill="#F26434"/>
<path d="M75.019 3.1582L64.9355 59.8995C65.0468 60.1378 65.1137 60.257 65.1137 60.257C73.9729 55.9674 81.1626 43.2417 81.1626 43.2417C91.3129 26.584 85.3474 5.08853 75.019 3.18206V3.1582Z" fill="#F7A17B"/>
<g opacity="0.38" style="mix-blend-mode:screen">
<path d="M67.0481 53.1084C65.579 49.5576 63.3976 43.5522 62.1733 36.8796C59.1906 20.5554 64.466 14.6215 66.2023 12.6912C68.8511 9.71235 71.4555 8.44933 73.9485 8.90211C74.0598 8.90211 74.1711 8.94977 74.3046 8.9736C77.7993 9.85535 80.7821 14.2402 81.8729 20.1503C83.1194 26.8229 81.7838 33.996 78.2223 39.8346L78.1555 39.9299L78.0887 40.0252C78.0887 40.0252 73.1694 48.5567 67.0481 53.1084Z" fill="#F7A17B"/>
</g>
<g opacity="0.28" style="mix-blend-mode:multiply">
<path d="M86.1721 28.3475C74.9311 44.7908 65.0925 60.2571 58.3034 19.125C53.9406 35.9019 63.5121 56.9446 64.9367 59.8996C65.048 60.1379 65.1148 60.257 65.1148 60.257C73.974 55.9675 81.1637 43.2418 81.1637 43.2418C84.0575 38.4756 85.6379 33.3282 86.1944 28.3475H86.1721Z" fill="#F7A17B"/>
</g>
<path d="M97.3004 30.5874C79.76 50.8674 97.2558 87.8767 99.3927 92.1901L110.456 24.1531C106.427 23.4858 101.864 25.2731 97.3004 30.5635V30.5874Z" fill="#F26434"/>
<path d="M110.454 24.2246L99.3916 92.2617C99.5252 92.5238 99.6142 92.6906 99.6142 92.6906C110.121 87.3763 118.512 72.0293 118.512 72.0293C130.354 51.9161 122.875 26.3217 110.477 24.2484L110.454 24.2246Z" fill="#F7A17B"/>
<g opacity="0.38" style="mix-blend-mode:screen">
<path d="M101.793 84.0901C99.9673 79.872 97.2517 72.7466 95.6713 64.7871C91.8204 45.3411 98.0308 38.1442 100.056 35.7849C103.173 32.1865 106.267 30.6137 109.249 31.1141C109.383 31.1141 109.517 31.1618 109.672 31.2094C113.879 32.1865 117.508 37.3816 118.932 44.4356C120.535 52.3712 119.066 60.9742 114.926 68.0281L114.859 68.1473L114.792 68.2664C114.792 68.2664 109.071 78.5852 101.815 84.114L101.793 84.0901Z" fill="#F7A17B"/>
</g>
<g opacity="0.28" style="mix-blend-mode:multiply">
<path d="M124.256 54.1102C111.101 73.9851 99.6149 92.6923 90.778 43.6484C85.8587 63.7855 97.6561 88.7602 99.3923 92.2634C99.5259 92.5255 99.6149 92.6923 99.6149 92.6923C110.121 87.378 118.513 72.031 118.513 72.031C121.897 66.2878 123.699 60.0917 124.256 54.134V54.1102Z" fill="#F7A17B"/>
</g>
<path d="M108.429 39.3086C105.624 60.0176 102.441 80.679 98.3901 101.174C98.1452 102.389 96.4091 101.96 96.6984 100.745C101.306 80.4407 105.046 59.8985 108.429 39.3086Z" fill="#F26434"/>
<path d="M40.7501 136.752C63.2988 150.216 92.7478 123.311 96.1758 120.07L31.8018 124.574C32.1356 128.935 34.8513 133.249 40.7278 136.752H40.7501Z" fill="#F26434"/>
<path d="M31.8663 124.576L96.2403 120.072C96.4629 119.857 96.5742 119.762 96.5742 119.762C89.2954 110.086 73.3577 104.963 73.3577 104.963C52.3004 97.3846 30.8424 111.206 31.8663 124.576Z" fill="#F7A17B"/>
<g opacity="0.38" style="mix-blend-mode:screen">
<path d="M88.2509 119.473C84.8452 122.357 79.0132 126.885 72.1574 130.388C55.4184 138.991 47.405 134.225 44.7784 132.652C40.7717 130.269 38.6126 127.409 38.3677 124.192C38.3677 124.049 38.3677 123.882 38.3677 123.739C38.2787 119.14 42.1296 114.135 48.1841 110.989C55.0177 107.462 63.1646 106.938 70.5547 109.607L70.6882 109.655L70.8218 109.703C70.9331 109.75 81.5286 113.23 88.2732 119.473H88.2509Z" fill="#F7A17B"/>
</g>
<g opacity="0.28" style="mix-blend-mode:multiply">
<path d="M55.7235 103.176C76.8699 112.184 96.5472 119.738 54.0986 140.495C73.531 140.876 93.4308 122.693 96.2132 120.072C96.4358 119.857 96.5471 119.762 96.5471 119.762C89.2683 110.086 73.3307 104.963 73.3307 104.963C67.3206 102.794 61.2661 102.389 55.7235 103.199V103.176Z" fill="#F7A17B"/>
</g>
<path d="M103.656 121.214C87.0279 120.881 70.1776 119.904 53.6611 122.477C70.133 119.308 87.0056 119.641 103.678 119.355C104.835 119.355 104.813 121.262 103.633 121.214H103.656Z" fill="#F26434"/>
<path d="M124.049 80.0829C101.856 94.2146 108.823 134.989 109.714 139.803L138.362 77.9381C134.667 76.0554 129.836 76.4129 124.049 80.1066V80.0829Z" fill="#F26434"/>
<path d="M138.362 77.9648L109.714 139.83C109.781 140.14 109.803 140.306 109.803 140.306C121.289 138.424 133.398 126.222 133.398 126.222C150.092 110.542 149.692 83.7319 138.362 77.9648Z" fill="#F7A17B"/>
<g opacity="0.38" style="mix-blend-mode:screen">
<path d="M114.223 132.727C113.599 128.128 112.887 120.454 113.466 112.352C114.913 92.5243 122.792 87.5198 125.374 85.8755C129.314 83.3732 132.698 82.8013 135.413 84.1835C135.547 84.255 135.658 84.3265 135.792 84.398C139.554 86.6143 141.668 92.6911 141.156 99.888C140.578 107.991 136.905 115.807 131.051 121.288L130.962 121.383L130.873 121.479C130.873 121.479 122.637 129.629 114.223 132.727Z" fill="#F7A17B"/>
</g>
<g opacity="0.28" style="mix-blend-mode:multiply">
<path d="M143.684 110.802C125.809 125.863 109.827 140.305 114.346 90.5938C104.285 108.419 108.981 135.944 109.716 139.828C109.783 140.138 109.805 140.305 109.805 140.305C121.291 138.422 133.4 126.221 133.4 126.221C138.163 121.741 141.547 116.355 143.661 110.802H143.684Z" fill="#F7A17B"/>
</g>
<path d="M132.485 89.8305L109.046 142.735C108.579 143.831 106.976 143.021 107.466 141.925C107.466 141.925 132.463 89.8305 132.463 89.8066L132.485 89.8305Z" fill="#F26434"/>
<path d="M53.8272 160.991C74.5061 144.453 107.049 166.949 110.833 169.69L46.4816 174.337C46.2812 169.975 48.4182 165.305 53.8272 160.991Z" fill="#F7A17B"/>
<path d="M46.5264 174.338L110.878 169.691C111.123 169.858 111.256 169.954 111.256 169.954C105.224 180.582 90.0656 187.898 90.0656 187.898C70.1435 198.384 47.1496 187.731 46.5264 174.315V174.338Z" fill="#F26434"/>
<g opacity="0.38" style="mix-blend-mode:screen">
<path d="M103.042 171.428C99.3024 169.045 92.9807 165.399 85.7465 162.873C68.0725 156.724 60.7492 162.587 58.3452 164.517C54.6724 167.448 52.8917 170.57 53.0475 173.811C53.0475 173.954 53.0475 174.121 53.092 174.264C53.5594 178.839 58.0113 183.248 64.3998 185.488C71.6118 188.038 79.7587 187.371 86.7482 183.701L86.8594 183.629L86.9707 183.582C86.9707 183.582 97.1432 178.554 103.064 171.428H103.042Z" fill="#F7A17B"/>
</g>
<g opacity="0.28" style="mix-blend-mode:multiply">
<path d="M72.8071 192.161C92.6401 180.245 111.227 169.974 66.5967 155.413C85.8287 152.292 107.776 167.472 110.848 169.688C111.093 169.855 111.227 169.95 111.227 169.95C105.194 180.579 90.0358 187.895 90.0358 187.895C84.3374 190.898 78.3941 192.161 72.8071 192.137V192.161Z" fill="#F7A17B"/>
</g>
<path d="M114.109 171.072C98.4388 170.977 82.746 171 67.0977 172.216C82.7014 170.381 98.3943 169.737 114.087 169.213C115.245 169.189 115.267 171.096 114.087 171.072H114.109Z" fill="#F26434"/>
<path d="M109.133 236.151C111.871 187.322 110.023 118.927 81.4201 78.7963C75.2097 69.9788 66.5063 64.1641 58.4262 57.4438C46.1168 47.3157 34.0744 36.7348 23.0561 24.9862C19.4278 21.0541 15.8218 17.0505 12.75 12.5703C19.3833 21.0541 27.3521 28.2033 35.2987 35.1858C47.3633 45.6714 60.0289 55.0369 72.8948 64.3786C85.9165 74.316 94.8869 89.2818 101.231 104.7C117.449 146.201 120.933 191.562 120.341 236.128L109.133 236.151Z" fill="#F26434"/>
<path d="M72.0117 20.3633C69.8748 33.9945 66.9144 47.8879 66.113 61.6383C66.113 62.8776 64.3323 62.8537 64.3768 61.5907C65.7791 47.5305 69.2961 34.1375 72.034 20.3633H72.0117Z" fill="#F26434"/>
</svg>
