<svg width="139" height="175" viewBox="0 0 139 175" fill="none" xmlns="http://www.w3.org/2000/svg">
<path d="M139 134.77C139 134.77 132.54 2.17215 27.5174 43.0428C27.3052 42.7794 -8.58012 77.0481 12.3214 112.373C14.0828 115.351 16.1738 119.132 20.943 121.218L20.7488 117.739C20.7488 117.739 21.0153 119.541 22.0902 119.851C23.1651 120.16 22.7631 120.411 23.4993 120.721C24.2354 121.03 24.0367 119.044 24.9761 120.223C25.9155 121.402 45.0683 121.944 47.5207 153.221H139V134.77Z" fill="#25292B"/>
<path d="M22.6182 47.3015C22.6182 47.3015 41.0355 -1.82855 80.4567 0.0526785C119.878 1.93818 106.643 36.2621 106.643 36.2621L95.5653 64.9337L22.6182 47.3015Z" fill="#282B2E"/>
<path d="M58.4549 89.0924C82.0145 89.0924 100.615 74.0055 100 55.3948C99.3856 36.7842 79.7884 21.6973 56.2288 21.6973C32.6692 21.6973 14.0686 36.7842 14.6834 55.3948C15.2981 74.0055 34.8953 89.0924 58.4549 89.0924Z" fill="#FEF1CA"/>
<path d="M107.386 42.2907C108.569 37.215 106.539 32.4907 102.853 31.7387C99.166 30.9866 95.2183 34.4917 94.0354 39.5674C92.8525 44.6431 94.8822 49.3675 98.569 50.1195C102.256 50.8715 106.203 47.3665 107.386 42.2907Z" fill="#D55C27"/>
<path d="M56.1808 31.4791C56.1808 31.4791 49.4217 24.4628 59.2519 12.0422C69.0866 -0.378453 84.6979 15.8389 84.6979 15.8389L56.1762 31.4791H56.1808Z" fill="#F79235"/>
<path d="M67.3212 18.9786C70.059 14.7988 70.4833 10.3813 68.2688 9.11172C66.0544 7.84216 62.0398 10.2013 59.302 14.3811C56.5642 18.5609 56.1399 22.9784 58.3544 24.248C60.5688 25.5175 64.5834 23.1584 67.3212 18.9786Z" fill="#D55C27"/>
<path d="M66.7526 19.8412C69.1686 16.1527 69.5431 12.2544 67.5891 11.1341C65.635 10.0138 62.0924 12.0958 59.6763 15.7843C57.2603 19.4728 56.8858 23.3711 58.8399 24.4913C60.794 25.6116 64.3366 23.5297 66.7526 19.8412Z" fill="#3166B1"/>
<path d="M60.6045 16.2563C58.8496 18.9371 58.8725 21.8232 60.5268 22.8878C62.9581 24.4527 65.0512 22.4944 66.8061 19.8136C68.561 17.1328 69.4247 14.2596 66.8838 13.1822C65.0557 12.4083 62.3594 13.5755 60.6045 16.2563Z" fill="#1E1617"/>
<path d="M62.5848 17.4321C62.8284 17.0374 62.753 16.5701 62.4163 16.3882C62.0797 16.2064 61.6094 16.379 61.3658 16.7737C61.1223 17.1683 61.1977 17.6357 61.5343 17.8175C61.8709 17.9993 62.3413 17.8268 62.5848 17.4321Z" fill="#FBFADF"/>
<path d="M63.7658 15.646C63.7658 15.646 65.2465 13.7348 66.6678 13.9443C66.6678 13.9443 66.1194 13.1276 64.6113 13.8074C63.1032 14.4873 61.9195 15.5519 62.6005 15.9795C63.2814 16.407 63.7704 15.646 63.7704 15.646H63.7658Z" fill="#FBFADF"/>
<path d="M49.4826 60.8447L51.3609 48.5227C51.3609 48.5227 52.1332 39.4714 59.4224 31.4676C66.7116 23.4638 82.8393 18.3503 82.8393 18.3503C82.8393 18.3503 93.844 16.3152 100.649 19.727C107.449 23.1389 107.307 28.7783 107.307 28.7783L106.398 33.5028C106.398 33.5028 97.9022 64.0514 78.3973 95.6603C58.8877 127.269 38.2037 154.782 18.7627 156.411C18.7627 156.411 37.3171 121.091 43.4912 92.351C49.6654 63.611 49.4826 60.8447 49.4826 60.8447Z" fill="#F79138"/>
<mask id="mask0_2996_44772" style="mask-type:luminance" maskUnits="userSpaceOnUse" x="-7" y="6" width="71" height="166">
<path d="M63.124 6.88281C63.124 6.88281 51.2465 146.41 8.11434 168.775C-35.0178 191.141 31.8694 50.1511 31.8694 50.1511L63.124 6.88281Z" fill="white"/>
</mask>
<g mask="url(#mask0_2996_44772)">
<path d="M49.5695 60.6435L51.4478 48.3215C51.4478 48.3215 52.2201 39.2702 59.5093 31.2664C66.7986 23.2627 82.9263 18.1491 82.9263 18.1491C82.9263 18.1491 93.9309 16.114 100.736 19.5259C107.536 22.9377 107.394 28.5771 107.394 28.5771L106.485 33.3016C106.485 33.3016 97.9891 63.8502 78.4842 95.4591C58.9746 127.068 38.2906 154.581 18.8496 156.21C18.8496 156.21 37.404 120.89 43.5781 92.1499C49.7523 63.4098 49.5695 60.6435 49.5695 60.6435Z" fill="#D05427"/>
</g>
<mask id="mask1_2996_44772" style="mask-type:luminance" maskUnits="userSpaceOnUse" x="12" y="11" width="117" height="152">
<path d="M100.343 11.7266C100.343 11.7266 99.2187 76.8299 12.959 161.819L33.5288 162.439L125.506 103.612L128.622 23.8819L100.338 11.7266H100.343Z" fill="white"/>
</mask>
<g mask="url(#mask1_2996_44772)">
<path d="M49.4787 60.9209L51.3569 48.5988C51.3569 48.5988 52.1293 39.5476 59.4185 31.5438C66.7077 23.54 82.8354 18.4265 82.8354 18.4265C82.8354 18.4265 93.8401 16.3913 100.645 19.8032C107.445 23.2151 107.303 28.8545 107.303 28.8545L106.394 33.5789C106.394 33.5789 97.8983 64.1275 78.3934 95.7365C58.8838 127.345 38.1998 154.858 18.7588 156.487C18.7588 156.487 37.3132 121.167 43.4873 92.4272C49.6615 63.6872 49.4787 60.9209 49.4787 60.9209Z" fill="#F47530"/>
</g>
<path opacity="0.64" d="M18.7627 156.415C18.7627 156.415 20.7461 155.846 42.3716 108.14C58.2799 73.0461 59.5275 104.741 55.7481 114.262C51.9687 123.784 39.8443 148.526 18.7627 156.415Z" fill="#25292B"/>
<path d="M49.3004 62.6278C49.3004 62.6278 52.1841 37.9276 67.6126 25.9773C83.2787 13.8388 107.276 15.7586 106.399 33.5023L106.54 32.6686C106.54 32.6686 112.427 21.0689 100.197 16.3614C87.963 11.6583 80.395 15.9381 74.943 17.751C69.4863 19.5596 53.9984 31.1679 51.5352 39.6507C49.0719 48.1292 48.1488 51.353 49.305 62.6278H49.3004Z" fill="#282B2E"/>
</svg>
