<svg width="364" height="480" viewBox="4 0 364 480" fill="none" xmlns="http://www.w3.org/2000/svg" preserveAspectRatio="none">
<g filter="url(#filter0_di_2616_32175)">
<path d="M335.937 474H36.0003C18.3023 474 3.96514 459.634 4.0004 441.936L4.73632 72.5V34C4.73632 16.3269 19.0632 2 36.7363 2H49.8271C63.5229 2 75.7003 10.7159 80.1173 23.6799L82.55 30.8201C86.967 43.7841 99.1444 52.5 112.84 52.5H252.881C265.147 52.5 276.333 45.4894 281.68 34.4512L288.657 20.0488C294.004 9.01061 305.191 2 317.456 2H335.491C353.021 2 367.288 16.1035 367.489 33.6319L367.937 72.5V442C367.937 459.673 353.61 474 335.937 474Z" fill="#8FD096"/>
</g>
<defs>
<filter id="filter0_di_2616_32175" x="4" y="0" width="363.937" height="480" filterUnits="userSpaceOnUse" color-interpolation-filters="sRGB">
<feFlood flood-opacity="0" result="BackgroundImageFix"/>
<feColorMatrix in="SourceAlpha" type="matrix" values="0 0 0 0 0 0 0 0 0 0 0 0 0 0 0 0 0 0 127 0" result="hardAlpha"/>
<feOffset dy="2"/>
<feGaussianBlur stdDeviation="2"/>
<feComposite in2="hardAlpha" operator="out"/>
<feColorMatrix type="matrix" values="0 0 0 0 0 0 0 0 0 0 0 0 0 0 0 0 0 0 0.18 0"/>
<feBlend mode="normal" in2="BackgroundImageFix" result="effect1_dropShadow_2616_32175"/>
<feBlend mode="normal" in="SourceGraphic" in2="effect1_dropShadow_2616_32175" result="shape"/>
<feColorMatrix in="SourceAlpha" type="matrix" values="0 0 0 0 0 0 0 0 0 0 0 0 0 0 0 0 0 0 127 0" result="hardAlpha"/>
<feOffset dy="4"/>
<feGaussianBlur stdDeviation="2"/>
<feComposite in2="hardAlpha" operator="arithmetic" k2="-1" k3="1"/>
<feColorMatrix type="matrix" values="0 0 0 0 1 0 0 0 0 1 0 0 0 0 1 0 0 0 0.25 0"/>
<feBlend mode="normal" in2="shape" result="effect2_innerShadow_2616_32175"/>
</filter>
</defs>
</svg>
