<svg width="260" height="465" viewBox="0 0 260 465" fill="none" xmlns="http://www.w3.org/2000/svg">
<g filter="url(#filter0_iiii_3209_4684)">
<path d="M109.042 171.725C104.54 164.688 97.633 158.732 95.6918 150.443C94.1112 143.659 96.2486 136.414 96.6869 129.367C97.8882 110.141 86.4141 92.9879 83.5031 74.1769C80.754 56.3834 86.0506 37.18 97.9973 21.728C97.1397 25.4667 96.2821 29.2054 96.1019 32.9565C95.4548 46.3169 103.188 58.0909 107.782 70.4725C111.283 79.9655 112.979 90.0965 112.749 100.335C112.54 109.983 110.63 119.657 110.179 129.327C109.812 137.22 110.394 145.053 110.992 152.86C111.393 158.1 111.778 163.366 112.179 168.606C112.251 169.626 112.339 170.62 112.389 171.472C116.403 164.437 120.29 157.349 124.051 150.208C127.203 144.227 130.234 138.214 133.212 132.172C133.05 127.236 137.301 116.91 137.974 114.238C140.713 103.389 142.154 92.3913 144.357 81.4698C149.931 53.7906 160.395 26.8294 170.85 0.000652894C169.392 26.0296 178.163 51.7492 172.035 77.5421C169.57 87.9065 164.78 97.8145 158.793 107.114C153.959 114.609 146.257 128.636 138.228 133.613C137.284 134.193 136.505 134.554 135.85 134.709C134.964 136.507 134.062 138.33 133.155 140.134C128.444 149.501 123.506 158.777 118.347 167.984C118.472 167.863 118.618 167.737 118.748 167.637C123.075 163.765 127.396 159.873 131.723 156.001C138.168 150.237 144.63 144.447 150.383 138.112C157.44 130.365 163.372 121.86 170.598 114.24C178.261 106.156 187.336 99.1427 197.338 93.5683C210.37 86.3118 225.42 81.131 235.154 70.3893C237.828 67.4489 239.983 64.1733 242.132 60.9088L242.287 60.6727C239.742 78.8315 229.139 96.5197 213.39 108.947C196.707 122.081 174.668 129.513 160.869 145.095C155.804 150.812 151.934 157.549 145.497 162.012C137.641 167.462 127.708 168.536 118.807 171.692C117.472 172.16 116.457 172.477 115.734 172.628C112.252 178.719 108.697 184.787 105.041 190.817C105.125 190.794 105.203 190.752 105.303 190.703C110.746 188.306 116.189 185.908 121.626 183.491C129.72 179.925 137.85 176.327 145.517 172.009C154.918 166.705 163.605 160.338 173.128 155.239C183.216 149.815 194.193 145.861 205.465 143.582C220.164 140.596 235.895 140.277 248.884 132.946C252.463 130.918 255.719 128.415 258.954 125.927L259.134 125.789C249.845 142.517 233.404 156.3 214.245 163.41C193.981 170.926 170.973 171.257 152.415 182.017C145.595 185.976 139.491 191.258 131.895 193.586C122.613 196.411 113.144 194.372 103.806 194.657C103.408 194.678 103.045 194.667 102.709 194.671C95.5673 206.274 88.0931 217.728 80.3231 229.002C80.2456 229.131 80.1471 229.266 80.0641 229.375C80.843 229.013 81.7112 228.649 82.5948 228.26L82.6153 228.251C88.0514 225.856 93.4875 223.462 98.9182 221.047C107.012 217.481 115.142 213.883 122.809 209.566C132.21 204.262 140.897 197.894 150.42 192.795C160.508 187.371 171.486 183.418 182.757 181.139C197.456 178.153 213.187 177.834 226.171 170.482C229.725 168.475 232.925 166.014 236.119 163.557L236.42 163.325C227.131 180.053 210.691 193.836 191.531 200.947C171.268 208.463 148.26 208.794 129.701 219.553C122.882 223.512 116.778 228.794 109.182 231.122C99.8997 233.947 90.4305 231.908 81.0932 232.194C79.823 232.233 78.857 232.233 78.1424 232.166C69.5217 244.535 60.5371 256.721 51.1776 268.682C51.3607 268.612 51.5383 268.52 51.7423 268.444L51.7628 268.435C57.199 266.04 62.6351 263.646 68.0658 261.231C76.1596 257.665 84.2899 254.067 91.9568 249.75C101.357 244.446 110.045 238.078 119.568 232.979C129.655 227.555 140.633 223.601 151.905 221.323C166.603 218.337 182.335 218.018 195.318 210.666C198.872 208.659 202.072 206.198 205.266 203.742L205.568 203.509C196.279 220.237 179.838 234.02 160.679 241.13C140.415 248.647 117.407 248.977 98.8489 259.737C92.0292 263.696 85.9254 268.978 78.3293 271.306C69.0472 274.131 59.578 272.092 50.2408 272.378C49.485 272.408 48.834 272.41 48.2932 272.404C40.5205 282.25 32.4893 291.97 24.2626 301.548C29.5311 299.587 34.7787 297.632 40.0418 295.651L40.1017 295.629C48.39 292.532 56.6982 289.428 64.6231 285.565C74.3545 280.821 83.4454 274.951 93.2731 270.398C103.702 265.574 114.896 262.256 126.258 260.645C141.059 258.541 156.705 259.155 170.162 252.563C173.957 250.718 177.405 248.338 180.864 245.999C170.405 262.219 153.057 275.056 133.504 281.038C112.831 287.365 89.9725 286.335 70.7371 295.999C63.6721 299.548 57.2082 304.494 49.5133 306.372C40.1054 308.647 30.8408 306.033 21.5561 305.763C21.2416 305.762 20.9688 305.748 20.6961 305.735L20.6949 305.735C18.6325 308.088 16.5702 310.441 14.5024 312.773C5.61785 322.745 -3.50964 332.566 -12.8591 342.23C-11.7179 341.879 -10.3035 341.542 -8.8162 341.141C-3.06022 339.655 2.71674 338.164 8.46728 336.658L8.46823 336.657C17.0573 334.43 25.6463 332.203 33.976 329.179C44.1841 325.455 53.893 320.544 64.1819 317.036C75.083 313.298 86.5347 311.187 97.9235 310.76C112.766 310.226 128.096 312.505 142.187 307.345C146.153 305.886 149.882 303.886 153.57 301.896C141.138 317.046 122.377 328.054 102.353 331.955C81.1757 336.08 58.8095 332.622 38.5997 340.254C31.1759 343.055 24.1701 347.324 16.3415 348.372C6.77729 349.65 -1.99261 346.036 -11.0922 344.785C-12.8428 344.542 -14.0052 344.314 -14.6795 344.063C-25.1529 354.809 -35.9274 365.355 -46.972 375.649L-45.1705 375.164C-39.4145 373.678 -33.6376 372.187 -27.8871 370.681L-27.8861 370.68C-19.2971 368.453 -10.708 366.226 -2.3784 363.202C7.82977 359.478 17.5386 354.567 27.8276 351.059C38.7286 347.321 50.1804 345.21 61.5692 344.783C76.4114 344.249 91.742 346.528 105.832 341.368C109.798 339.909 113.528 337.908 117.216 335.919C104.784 351.069 86.0228 362.077 65.9986 365.978C44.8214 370.103 22.4552 366.645 2.24533 374.276C-5.17841 377.078 -12.1842 381.347 -20.0128 382.395C-29.577 383.673 -38.3469 380.059 -47.4465 378.808C-48.498 378.658 -49.3236 378.513 -49.9653 378.383C-54.6449 382.696 -59.3718 387.001 -64.1414 391.231C-73.2641 399.318 -82.6297 407.254 -92.2607 414.872L-95.1324 417.14C-114.375 432.197 -134.679 446.068 -156.425 457.925C-160.692 460.265 -165.008 462.51 -169.371 464.66C-171.472 465.703 -173.418 463.066 -171.318 462.023C-144.749 448.803 -120.194 432.531 -97.1988 414.557C-97.4906 414.224 -97.8407 413.842 -98.2071 413.4C-103.555 406.894 -111.179 401.695 -114.12 393.696C-116.512 387.152 -115.232 379.813 -115.617 372.794C-116.693 353.705 -130.234 337.888 -135.382 319.615C-140.263 302.33 -137.216 282.867 -127.094 266.478L-127.13 266.808C-127.519 270.465 -127.909 274.126 -127.656 277.737C-126.719 290.973 -117.566 301.845 -111.497 313.613C-106.846 322.623 -103.945 332.472 -102.974 342.582C-102.045 352.119 -102.794 361.847 -102.101 371.426C-101.546 379.233 -100.023 386.888 -98.505 394.522L-98.4985 394.554L-95.4251 409.965C-95.2269 410.951 -95.045 411.876 -94.8849 412.721C-88.6257 407.765 -82.4676 402.685 -76.4203 397.527C-68.2586 390.543 -60.2506 383.405 -52.3909 376.135C-52.6191 375.871 -52.8473 375.608 -53.1128 375.29C-58.4603 368.784 -66.1057 363.59 -69.0415 355.612C-71.4546 349.074 -70.1738 341.735 -70.5805 334.721C-71.6984 315.644 -85.2546 299.852 -90.4496 281.57C-95.3517 264.292 -92.3519 244.819 -82.2514 228.436C-82.652 232.203 -83.0526 235.97 -82.7921 239.689C-81.8339 252.92 -72.6603 263.786 -66.5706 275.548C-61.9189 284.558 -58.9972 294.402 -57.9842 304.501C-57.0342 314.032 -57.7624 323.755 -57.0692 333.333C-56.5055 340.966 -55.016 348.454 -53.5298 355.924L-53.4251 356.45C-52.4007 361.587 -51.3552 366.718 -50.3308 371.855C-50.1877 372.553 -50.0556 373.21 -49.9344 373.827C-38.5461 363.224 -27.4753 352.36 -16.7111 341.276C-16.7165 341.256 -16.7483 341.221 -16.7747 341.206C-22.1223 334.701 -29.7677 329.507 -32.7035 321.529C-35.1166 314.99 -33.8358 307.652 -34.2425 300.638C-35.3604 281.56 -48.9166 265.769 -54.1116 247.487C-59.0137 230.208 -56.0139 210.736 -45.9134 194.352C-46.314 198.119 -46.7146 201.887 -46.4541 205.606C-45.4958 218.837 -36.3223 229.703 -30.2326 241.465C-25.5809 250.475 -22.6592 260.319 -21.6461 270.417C-20.6961 279.948 -21.4244 289.671 -20.7312 299.25C-20.1675 306.883 -18.678 314.37 -17.1918 321.84L-17.0871 322.367C-16.0626 327.504 -15.0172 332.635 -13.9928 337.772C-13.9438 337.954 -13.9158 338.141 -13.8878 338.328C-8.33971 332.568 -2.85527 326.739 2.54457 320.845C6.98807 315.989 11.3788 311.103 15.7113 306.169C15.1874 305.725 14.5191 304.996 13.6536 303.952C8.30598 297.446 0.660604 292.252 -2.27518 284.274C-4.68826 277.736 -3.40749 270.397 -3.81421 263.383C-4.93208 244.305 -18.4882 228.514 -23.6833 210.232C-28.5854 192.953 -25.5856 173.481 -15.4851 157.097C-15.8857 160.865 -16.2863 164.632 -16.0258 168.351C-15.0675 181.582 -5.89394 192.448 0.195716 204.21C4.84741 213.22 7.76912 223.064 8.78216 233.162C9.73215 242.693 8.98294 252.422 9.69708 261.995C10.2608 269.628 11.7503 277.115 13.2365 284.586L13.3412 285.112C14.3657 290.249 15.4111 295.38 16.4356 300.517C16.7278 302.019 17.0348 303.409 17.171 304.498L17.2129 304.487C27.4516 292.786 37.3574 280.85 46.8883 268.69C46.4699 268.305 45.9825 267.83 45.4205 267.245C39.5672 261.114 31.5169 256.419 27.9845 248.645C25.085 242.303 25.8196 234.938 24.8938 227.999C22.3654 209.107 7.59986 194.247 1.04405 176.418C-5.16147 159.556 -3.58473 140.056 5.32457 123.17C5.19167 126.93 5.06422 130.71 5.62883 134.391C7.57791 147.463 17.5753 157.718 24.5532 169.024C29.9 177.695 33.5386 187.281 35.3065 197.263C36.9641 206.668 36.9497 216.372 38.3559 225.845C39.4899 233.4 41.5423 240.77 43.5846 248.104L43.7185 248.585C45.1201 253.621 46.548 258.671 47.9705 263.7C48.2261 264.649 48.4972 265.572 48.6938 266.385C56.0764 256.926 63.2215 247.337 70.1555 237.63C71.8035 235.324 73.4251 233.004 75.0467 230.683C74.7448 230.396 74.4056 230.055 74.0346 229.678C68.1812 223.547 60.131 218.852 56.5986 211.078C53.6991 204.736 54.4336 197.371 53.5079 190.432C50.9794 171.54 36.2139 156.68 29.6581 138.851C23.4526 121.989 25.0293 102.489 33.9387 85.603C33.8057 89.363 33.6783 93.1431 34.2429 96.8235C36.192 109.896 46.1894 120.15 53.1673 131.457C58.5141 140.128 62.1526 149.714 63.9206 159.695C65.5782 169.101 65.5638 178.805 66.9909 188.272C68.125 195.827 70.1774 203.198 72.2196 210.531L72.3536 211.012C73.7551 216.048 75.183 221.098 76.6055 226.128L77.0623 227.823C84.4802 217.077 91.5923 206.197 98.4195 195.178C97.8591 194.766 97.1124 194.079 96.1686 193.077C90.3153 186.946 82.265 182.251 78.7326 174.477C75.8331 168.135 76.5676 160.77 75.6418 153.831C73.1134 134.939 58.3479 120.079 51.7921 102.25C45.5866 85.388 47.1634 65.8877 56.0726 49.0022C55.9397 52.7622 55.8123 56.5423 56.3769 60.2226C58.326 73.295 68.3234 83.5496 75.3013 94.8558C80.6481 103.527 84.2867 113.113 86.0546 123.095C87.7122 132.5 87.6978 142.204 89.104 151.677C90.2381 159.232 92.2905 166.603 94.3329 173.937L94.4666 174.417C95.8891 179.447 97.2961 184.503 98.7185 189.532C99.0829 190.885 99.462 192.125 99.6975 193.166C103.571 186.861 107.344 180.518 111.039 174.131C110.567 173.631 109.992 172.833 109.251 171.668L109.042 171.725Z" fill="#8FD096"/>
</g>
<defs>
<filter id="filter0_iiii_3209_4684" x="-176.221" y="-4" width="439.354" height="472.9" filterUnits="userSpaceOnUse" color-interpolation-filters="sRGB">
<feFlood flood-opacity="0" result="BackgroundImageFix"/>
<feBlend mode="normal" in="SourceGraphic" in2="BackgroundImageFix" result="shape"/>
<feColorMatrix in="SourceAlpha" type="matrix" values="0 0 0 0 0 0 0 0 0 0 0 0 0 0 0 0 0 0 127 0" result="hardAlpha"/>
<feOffset dx="4" dy="4"/>
<feGaussianBlur stdDeviation="4"/>
<feComposite in2="hardAlpha" operator="arithmetic" k2="-1" k3="1"/>
<feColorMatrix type="matrix" values="0 0 0 0 0 0 0 0 0 0 0 0 0 0 0 0 0 0 0.05 0"/>
<feBlend mode="normal" in2="shape" result="effect1_innerShadow_3209_4684"/>
<feColorMatrix in="SourceAlpha" type="matrix" values="0 0 0 0 0 0 0 0 0 0 0 0 0 0 0 0 0 0 127 0" result="hardAlpha"/>
<feOffset dx="-4" dy="-4"/>
<feGaussianBlur stdDeviation="4"/>
<feComposite in2="hardAlpha" operator="arithmetic" k2="-1" k3="1"/>
<feColorMatrix type="matrix" values="0 0 0 0 0 0 0 0 0 0 0 0 0 0 0 0 0 0 0.05 0"/>
<feBlend mode="normal" in2="effect1_innerShadow_3209_4684" result="effect2_innerShadow_3209_4684"/>
<feColorMatrix in="SourceAlpha" type="matrix" values="0 0 0 0 0 0 0 0 0 0 0 0 0 0 0 0 0 0 127 0" result="hardAlpha"/>
<feOffset dx="4" dy="-4"/>
<feGaussianBlur stdDeviation="4"/>
<feComposite in2="hardAlpha" operator="arithmetic" k2="-1" k3="1"/>
<feColorMatrix type="matrix" values="0 0 0 0 0 0 0 0 0 0 0 0 0 0 0 0 0 0 0.05 0"/>
<feBlend mode="normal" in2="effect2_innerShadow_3209_4684" result="effect3_innerShadow_3209_4684"/>
<feColorMatrix in="SourceAlpha" type="matrix" values="0 0 0 0 0 0 0 0 0 0 0 0 0 0 0 0 0 0 127 0" result="hardAlpha"/>
<feOffset dx="-4" dy="4"/>
<feGaussianBlur stdDeviation="4"/>
<feComposite in2="hardAlpha" operator="arithmetic" k2="-1" k3="1"/>
<feColorMatrix type="matrix" values="0 0 0 0 0 0 0 0 0 0 0 0 0 0 0 0 0 0 0.05 0"/>
<feBlend mode="normal" in2="effect3_innerShadow_3209_4684" result="effect4_innerShadow_3209_4684"/>
</filter>
</defs>
</svg>
