<svg width="140" height="118" viewBox="0 0 140 118" fill="none" xmlns="http://www.w3.org/2000/svg">
<path d="M47.0786 21.4384C43.6302 19.0672 39.4889 17.6214 35.3105 16.5209C29.5333 14.9985 23.3548 14.0751 17.5165 15.3702C5.85805 17.9424 -1.67781 29.9589 1.26098 40.3275C4.19981 50.6779 16.4713 58.0144 28.4527 57.2426C18.1052 58.909 8.54791 64.7219 3.63851 72.9998C-1.27089 81.2776 -1.18662 91.8577 4.37556 99.7965C9.93774 107.735 20.979 112.524 31.3625 111.003C41.7459 109.482 50.6358 101.45 51.6211 92.145C49.6002 101.211 56.0312 110.77 65.3288 114.937C74.6264 119.085 86.0259 118.403 95.5601 114.698C101.692 112.313 107.536 108.419 109.822 102.807C111.047 99.8284 111.182 96.5748 110.734 93.447C109.679 86.0096 105.351 78.9825 98.8544 74.1864C113.441 78.6197 131.218 71.7172 137.464 59.1887C140.186 53.7234 140.765 47.0714 137.341 41.9007C135.548 39.1879 132.772 37.0546 129.831 35.3025C121.281 30.2107 109.597 27.9655 100.752 32.5985C107.375 29.7782 111.1 22.7155 109.97 16.2595C108.84 9.80349 103.345 4.26438 96.5336 1.8125C89.7224 -0.63937 81.8137 -0.167074 75.0635 2.39845C61.9634 7.36682 55.1547 19.3668 55.0172 31.4915C53.4448 27.5795 50.8355 24.0286 47.0967 21.4748L47.0786 21.4384Z" fill="#FFDB8C"/>
<g opacity="0.33" style="mix-blend-mode:multiply">
<path d="M37.1141 21.3038C42.5059 24.3704 46.5664 29.2518 48.2441 34.7456C44.7406 32.6287 41.1826 30.5299 37.2228 29.1936C33.2631 27.8573 28.8287 27.3378 24.7904 28.4918C32.9297 30.4923 40.2815 34.9451 45.3938 40.9196C37.4029 37.6833 28.2431 36.7529 19.6411 38.3143C28.8725 39.6811 37.7175 43.0467 45.1771 48.0814C40.0497 48.5238 34.9224 48.9663 29.795 49.4269C27.104 49.6569 24.2493 49.9411 22.0827 51.3903C29.9013 50.6088 37.9515 51.8274 45.0704 54.8254C38.3596 56.064 31.7929 57.9027 25.4794 60.3057C21.0762 61.986 16.5083 64.1931 14.4451 68.0421C21.528 63.1323 30.3695 60.2444 39.3504 59.9383C28.7809 63.2401 20.345 71.4916 17.6319 81.1562C23.5387 73.9168 32.3132 68.5747 42.0441 66.2889C33.8877 71.5961 30.3397 80.7133 27.2657 89.2682C33.114 83.7011 38.9442 78.134 44.7925 72.5487C41.7572 80.0857 37.7774 87.3295 32.9443 94.0806C40.0845 87.9893 47.407 81.6804 51.3706 73.6367C50.2267 80.7963 47.7744 87.8074 44.1236 94.2704C49.3891 89.1564 53.4572 83.0761 56.0357 76.5198C53.7092 84.1129 55.0347 92.5327 59.5998 99.2876C59.5764 93.7976 60.4436 88.2916 62.1829 83.0239C61.5739 86.9308 62.9461 90.9333 65.3196 94.2837C67.675 97.6159 70.977 100.369 74.4433 102.831C71.4608 95.6069 69.5517 88.022 68.7698 80.3671C73.6434 87.359 78.1711 94.5501 82.3532 101.886C82.0088 93.6865 80.2465 85.5203 77.1379 77.7872C84.5073 82.4945 90.1813 89.252 93.1448 96.8575C91.7642 88.6922 88.2197 80.8126 82.9093 74.0378C91.4791 78.4752 98.4618 85.3085 102.551 93.3348C100.574 83.8228 95.4141 74.8487 87.9046 67.8506C97.4069 70.0361 107.495 70.2597 117.098 68.4644C110.847 67.3772 104.78 65.5451 99.0776 63.005C105.713 62.7479 112.279 61.2363 118.212 58.5779C111.45 58.1258 104.689 57.7827 97.9269 57.5487C105.06 54.4388 112.736 52.3299 120.592 51.3303C112.889 49.4398 104.563 49.6021 96.977 51.7839C102.315 46.761 110.553 45.3079 118.209 44.126C110.96 42.4366 103.051 43.0544 96.2637 45.8561C101.111 40.6866 109.15 39.0694 116.57 37.7597C108.427 37.1953 100.097 39.2118 93.3793 43.3407C96.807 38.9859 102.43 36.4905 107.798 34.158C99.7975 35.0664 92.173 38.357 86.4531 43.3972C89.3329 40.1864 93.156 37.7594 96.2535 34.7127C99.351 31.666 101.796 27.6179 100.915 23.5984C96.0116 29.3495 89.6017 34.079 82.3409 37.3159C87.1177 31.3101 91.389 23.8488 88.7695 16.8621C87.0815 23.4933 83.1769 29.6466 77.6759 34.3601C79.3806 28.347 80.0497 22.1134 79.646 15.9318C77.6329 21.6897 75.6379 27.4657 73.6248 33.2236C71.4008 28.1466 75.1587 22.5019 74.6261 17.0834C70.4678 22.909 67.5802 29.4465 66.1828 36.2419C62.1751 32.0879 66.2808 25.426 64.166 20.2947C61.8266 25.6518 60.0483 32.0284 56.7828 36.9652C55.4208 36.3622 54.3556 33.233 53.4132 32.0128C52.1265 30.3192 50.6213 28.7705 48.934 27.385C45.5775 24.614 41.5105 22.4775 37.114 21.322L37.1141 21.3038Z" fill="#D6B368"/>
</g>
<path d="M56.2772 43.6902C54.7488 44.3047 53.8716 46.2659 55.0143 47.3774C54.7605 47.0678 54.2152 47.0483 53.8511 47.2475C53.4871 47.4466 53.25 47.7914 53.0492 48.1364C52.4105 49.2074 51.8442 50.3877 51.9868 51.5878C52.1112 52.7878 53.1445 54.0082 54.526 54.0478C53.7631 53.7915 53.0704 54.6079 52.9415 55.3348C52.6838 56.6612 53.1713 58.0802 54.2234 59.0643C55.2755 60.0302 56.8376 60.5429 58.3468 60.3828C57.6917 60.6903 57.5806 61.5445 57.9246 62.1452C58.2686 62.7277 58.9221 63.111 59.5757 63.4579C60.8466 64.1335 62.5723 64.701 63.7195 63.8675C65.8433 65.1813 69.0251 64.9161 70.8286 63.2661C73.2267 63.9262 76.0653 62.7149 76.9791 60.6447C78.7979 60.249 80.0928 58.4524 79.7149 56.8154C79.661 56.5426 79.5525 56.2697 79.6441 55.9972C79.7355 55.7429 79.9723 55.5617 80.1908 55.3804C81.1747 54.4374 81.1603 52.8196 80.1445 51.8901C81.036 51.5468 81.3657 50.4932 81.0586 49.6563C80.7515 48.8375 79.9713 48.2176 79.1362 47.7612C79.9556 47.1632 79.8857 45.9451 79.1966 45.2345C78.5075 44.524 77.3811 44.2486 76.3267 44.2462C76.6199 43.247 75.6952 42.2269 74.587 41.9516C73.4787 41.6945 72.2782 42.0189 71.2953 42.5438C70.6807 41.0699 68.0821 40.682 66.9522 41.8974C67.2081 41.2981 66.1726 40.9866 65.4635 41.0577C63.4997 41.2712 62.6253 42.0872 61.1868 43.0836C59.7484 44.0619 58.0785 42.9854 56.3318 43.6721L56.2772 43.6902Z" fill="#FFE4A3"/>
<path d="M62.3925 47.1409C61.4464 47.4659 60.9528 48.6827 61.6602 49.3388C60.6053 49.5544 59.6039 50.2247 59.3654 51.1694C59.1269 52.1142 59.9423 53.2249 61.033 53.2093C60.2864 53.7711 60.4837 54.935 61.2094 55.5184C61.9352 56.1018 63.0075 56.1952 63.9894 56.0884C63.5897 55.9966 63.2614 56.4503 63.3878 56.796C63.5143 57.1417 63.8955 57.3607 64.2405 57.5251C64.8579 57.8174 65.5299 58.0917 66.2389 58.0388C66.948 57.9859 67.6399 57.5331 67.6959 56.9152C69.0213 57.609 70.9862 56.9047 71.4074 55.5787C72.0986 55.3985 72.8263 55.1457 73.2094 54.6012C73.5924 54.0568 73.3581 53.1655 72.6494 53.0547C73.3045 52.7654 73.5972 51.9844 73.2896 51.402C72.9637 50.8195 72.0736 50.5448 71.4185 50.8341C72.0013 50.381 72.1124 49.5269 71.6774 48.9623C71.2424 48.3978 70.2976 48.1956 69.6061 48.5212C70.0063 48.3949 70.1529 47.9044 69.9719 47.5586C69.7909 47.2128 69.3915 46.9937 68.9919 46.8473C67.6841 46.408 66.8287 46.8423 65.6282 47.1485C64.4823 47.4367 63.5023 46.7618 62.3743 47.1409L62.3925 47.1409Z" fill="#A09583"/>
</svg>
