<svg width="10" height="8" viewBox="0 0 10 8" fill="none" xmlns="http://www.w3.org/2000/svg">
<path d="M0.500287 0.00165653H9.50029C9.59141 0.00194216 9.68073 0.0270739 9.75863 0.0743456C9.83652 0.121617 9.90006 0.189239 9.94238 0.269933C9.98471 0.350626 10.0042 0.441337 9.99884 0.532298C9.99345 0.62326 9.96335 0.711028 9.91179 0.786157L5.41179 7.28616C5.22529 7.55566 4.77629 7.55566 4.58929 7.28616L0.0892869 0.786157C0.0371993 0.711185 0.00665394 0.623372 0.000969462 0.532259C-0.00471502 0.441146 0.0146788 0.350217 0.0570438 0.269353C0.0994089 0.188488 0.163125 0.12078 0.241269 0.0735846C0.319413 0.0263896 0.408997 0.00151253 0.500287 0.00165653Z" fill="#323031"/>
</svg>
