<svg width="570" height="192" viewBox="0 0 570 192" fill="none" xmlns="http://www.w3.org/2000/svg">
<path d="M21.7416 192C21.3893 192 21.1125 191.634 20.9112 190.903C20.7098 189.989 20.6092 188.983 20.6092 187.886V63.6343C20.6092 62.5371 20.5085 61.6229 20.3072 60.8914C20.1059 60.16 19.8543 59.7943 19.5523 59.7943H1.05688C0.805243 59.7943 0.553605 59.3371 0.301966 58.4229C0.100655 57.3257 0 56.32 0 55.4057V4.11428C0 3.2 0.100655 2.19428 0.301966 1.09715C0.503277 0.365715 0.754915 0 1.05688 0H57.9775C58.2795 0 58.5311 0.365715 58.7324 1.09715C58.9337 2.19428 59.0344 3.2 59.0344 4.11428V55.4057C59.0344 56.32 58.9337 57.3257 58.7324 58.4229C58.4808 59.3371 58.2291 59.7943 57.9775 59.7943H39.4821C39.2304 59.7943 38.9788 60.16 38.7272 60.8914C38.5259 61.6229 38.4252 62.5371 38.4252 63.6343V187.886C38.4252 188.983 38.3245 189.989 38.1232 190.903C37.9219 191.634 37.6451 192 37.2928 192H21.7416Z" fill="#8FD096"/>
<path d="M77.6077 192C74.9403 192 72.4742 189.531 70.2095 184.594C67.9447 179.474 66.1329 172.709 64.7741 164.297C63.4656 155.703 62.8113 146.286 62.8113 136.046V3.84C62.8113 2.74286 62.912 1.82858 63.1133 1.09715C63.3146 0.365715 63.5662 0 63.8682 0H79.7214C79.9731 0 80.1995 0.365715 80.4008 1.09715C80.6525 1.82858 80.7783 2.74286 80.7783 3.84V117.12C80.7783 120.046 81.0299 122.514 81.5332 124.526C82.0365 126.537 82.6404 127.543 83.345 127.543H104.256C104.961 127.543 105.565 126.537 106.068 124.526C106.571 122.514 106.823 120.046 106.823 117.12V3.84C106.823 2.74286 106.924 1.82858 107.125 1.09715C107.376 0.365715 107.628 0 107.88 0H123.657C123.959 0 124.211 0.365715 124.412 1.09715C124.614 1.82858 124.714 2.74286 124.714 3.84V136.046C124.714 146.286 124.035 155.703 122.676 164.297C121.368 172.709 119.581 179.474 117.316 184.594C115.051 189.531 112.56 192 109.843 192H77.6077Z" fill="#8FD096"/>
<path d="M143.294 192C140.627 192 138.161 189.531 135.896 184.594C133.631 179.474 131.819 172.709 130.461 164.297C129.152 155.703 128.498 146.377 128.498 136.32V55.68C128.498 45.6229 129.152 36.3886 130.461 27.9771C131.819 19.3829 133.631 12.6171 135.896 7.68C138.161 2.56 140.627 0 143.294 0H183.984C184.387 0 184.714 0.548575 184.965 1.64573C185.267 2.56001 185.418 3.74858 185.418 5.21143V54.8572C185.418 56.32 185.267 57.6 184.965 58.6971C184.714 59.6114 184.387 60.0686 183.984 60.0686H147.824C147.421 60.0686 147.069 60.6171 146.767 61.7143C146.515 62.6286 146.389 63.8171 146.389 65.28V125.349C146.389 126.811 146.515 128.091 146.767 129.189C147.069 130.103 147.421 130.56 147.824 130.56H183.984C184.387 130.56 184.714 131.109 184.965 132.206C185.267 133.12 185.418 134.309 185.418 135.771V186.789C185.418 188.251 185.267 189.531 184.965 190.629C184.714 191.543 184.387 192 183.984 192H143.294Z" fill="#8FD096"/>
<path d="M190.983 192C190.379 192 189.901 191.177 189.549 189.531C189.247 187.886 189.146 185.966 189.247 183.771L202.458 4.66286C202.558 3.2 202.76 2.10286 203.062 1.37143C203.414 0.457142 203.791 0 204.194 0H233.032C233.434 0 233.812 0.457142 234.164 1.37143C234.516 2.28571 234.718 3.38286 234.768 4.66286L247.979 183.771C248.13 185.966 248.029 187.886 247.677 189.531C247.325 191.177 246.847 192 246.243 192H231.069C230.666 192 230.289 191.634 229.937 190.903C229.635 189.989 229.433 188.8 229.333 187.337L228.276 172.526C228.225 171.794 228.1 171.154 227.898 170.606C227.697 170.057 227.471 169.783 227.219 169.783H210.007C209.755 169.783 209.529 170.057 209.327 170.606C209.126 171.154 209 171.794 208.95 172.526C208.849 174.171 208.749 175.543 208.648 176.64C208.547 177.737 208.472 178.743 208.422 179.657C208.069 184.411 207.868 187.611 207.818 189.257C207.667 191.086 207.314 192 206.761 192H190.983ZM222.312 110.263C222.664 110.263 222.941 109.806 223.142 108.891C223.344 107.794 223.394 106.514 223.293 105.051L220.047 61.44C219.997 60.3429 219.796 59.7943 219.443 59.7943H217.782C217.481 59.7943 217.279 60.3429 217.179 61.44L213.932 105.051V106.149C213.932 107.246 214.008 108.251 214.159 109.166C214.36 109.897 214.612 110.263 214.914 110.263H222.312Z" fill="#8FD096"/>
<path d="M284.372 2.74285L293.431 125.623C293.481 126.171 293.582 126.446 293.733 126.446C293.934 126.263 294.035 125.897 294.035 125.349V4.38858C294.035 3.10857 294.135 2.10286 294.337 1.37143C294.588 0.457142 294.865 0 295.167 0H310.794C311.096 0 311.348 0.457142 311.549 1.37143C311.8 2.10286 311.926 3.10857 311.926 4.38858V188.16C311.926 189.257 311.8 190.171 311.549 190.903C311.348 191.634 311.121 192 310.869 192L280.597 191.726C280.044 191.726 279.691 190.811 279.54 188.983L270.481 65.8286C270.431 65.0972 270.28 64.8229 270.029 65.0057C269.827 65.0057 269.727 65.3714 269.727 66.1029V187.886C269.727 188.983 269.626 189.989 269.425 190.903C269.223 191.634 268.946 192 268.594 192H252.967C252.665 192 252.389 191.634 252.137 190.903C251.936 189.989 251.835 188.983 251.835 187.886V3.84C251.835 2.92571 251.936 2.10286 252.137 1.37143C252.338 0.457142 252.59 0 252.892 0H283.39C283.894 0 284.221 0.914285 284.372 2.74285Z" fill="#8FD096"/>
<path d="M362.861 192H317.113C316.71 192 316.358 191.543 316.056 190.629C315.804 189.531 315.678 188.251 315.678 186.789V5.21143C315.678 3.74858 315.804 2.56001 316.056 1.64573C316.358 0.548575 316.71 0 317.113 0H361.2C364.27 0 367.113 2.83429 369.73 8.50286C372.398 13.9886 374.486 21.4857 375.996 30.9943C377.556 40.32 378.336 50.56 378.336 61.7143C378.336 72.6857 377.582 82.9257 376.072 92.4343C378.538 103.771 379.771 116.571 379.771 130.834C379.771 141.989 379.016 152.229 377.506 161.554C375.996 170.88 373.933 178.286 371.316 183.771C368.749 189.257 365.931 192 362.861 192ZM335.004 69.6686H355.538C357.148 69.6686 357.954 67.5657 357.954 63.36C357.954 59.1543 357.148 57.0514 355.538 57.0514H335.004C334.602 57.0514 334.249 57.6 333.947 58.6971C333.696 59.6114 333.57 60.8 333.57 62.2629V64.4571C333.57 65.92 333.696 67.2 333.947 68.2971C334.249 69.2114 334.602 69.6686 335.004 69.6686ZM335.004 135.771H355.538C357.148 135.771 357.954 133.669 357.954 129.463C357.954 125.257 357.148 123.154 355.538 123.154H335.004C334.602 123.154 334.249 123.703 333.947 124.8C333.696 125.714 333.57 126.903 333.57 128.366V130.56C333.57 132.023 333.696 133.303 333.947 134.4C334.249 135.314 334.602 135.771 335.004 135.771Z" fill="#8FD096"/>
<path d="M384.86 192C384.508 192 384.206 191.543 383.954 190.629C383.702 189.714 383.577 188.617 383.577 187.337V4.93714C383.577 3.65715 383.702 2.56001 383.954 1.64573C384.206 0.73143 384.508 0.274282 384.86 0.274282H426.531C429.752 0.274282 432.722 2.83429 435.439 7.9543C438.207 12.8914 440.422 20.2971 442.083 30.1714C443.743 40.0457 444.574 51.9314 444.574 65.8286C444.574 78.4457 443.718 89.8743 442.007 100.114C440.296 110.354 438.031 118.217 435.213 123.703C438.534 148.023 441.277 169.509 443.441 188.16L443.517 188.983C443.517 189.714 443.441 190.354 443.29 190.903C443.139 191.451 442.963 191.726 442.762 191.726H425.248C424.745 191.726 424.418 190.994 424.267 189.531L416.944 134.4C416.793 132.937 416.466 132.206 415.962 132.206H402.751C402.299 132.206 401.946 133.029 401.695 134.674C401.594 135.04 401.544 135.771 401.544 136.869V187.337C401.544 188.069 401.493 188.8 401.393 189.531C401.191 191.177 400.814 192 400.26 192H384.86ZM423.663 74.88C424.418 74.88 424.996 74.24 425.399 72.96C425.852 71.4971 426.078 69.6686 426.078 67.4743C426.078 65.4629 425.877 63.8171 425.474 62.5371C425.072 61.0743 424.468 60.3429 423.663 60.3429H403.129C402.928 60.3429 402.701 60.6171 402.449 61.1657C402.299 61.7143 402.223 62.3543 402.223 63.0857V72.4114C402.223 73.1429 402.299 73.7829 402.449 74.3314C402.651 74.88 402.877 75.1543 403.129 75.1543L423.663 74.88Z" fill="#8FD096"/>
<path d="M447.094 192C446.49 192 446.012 191.177 445.66 189.531C445.358 187.886 445.257 185.966 445.358 183.771L458.569 4.66286C458.669 3.2 458.871 2.10286 459.173 1.37143C459.525 0.457142 459.902 0 460.305 0H489.143C489.545 0 489.923 0.457142 490.275 1.37143C490.627 2.28571 490.829 3.38286 490.879 4.66286L504.09 183.771C504.241 185.966 504.14 187.886 503.788 189.531C503.436 191.177 502.958 192 502.354 192H487.18C486.777 192 486.4 191.634 486.048 190.903C485.746 189.989 485.544 188.8 485.444 187.337L484.387 172.526C484.336 171.794 484.211 171.154 484.009 170.606C483.808 170.057 483.581 169.783 483.33 169.783H466.118C465.866 169.783 465.64 170.057 465.438 170.606C465.237 171.154 465.111 171.794 465.061 172.526C464.96 174.171 464.86 175.543 464.759 176.64C464.658 177.737 464.583 178.743 464.532 179.657C464.18 184.411 463.979 187.611 463.928 189.257C463.778 191.086 463.425 192 462.872 192H447.094ZM478.423 110.263C478.775 110.263 479.052 109.806 479.253 108.891C479.455 107.794 479.505 106.514 479.404 105.051L476.158 61.44C476.108 60.3429 475.907 59.7943 475.554 59.7943H473.893C473.591 59.7943 473.39 60.3429 473.289 61.44L470.043 105.051V106.149C470.043 107.246 470.119 108.251 470.27 109.166C470.471 109.897 470.723 110.263 471.025 110.263H478.423Z" fill="#8FD096"/>
<path d="M510.664 192C510.06 192 509.607 190.994 509.305 188.983C509.204 188.434 509.154 187.52 509.154 186.24V142.354C509.154 140.709 509.305 139.246 509.607 137.966C509.959 136.686 510.387 136.046 510.89 136.046H549.013C549.819 136.046 550.423 135.406 550.825 134.126C551.228 132.846 551.429 131.2 551.429 129.189C551.429 127.177 551.203 125.531 550.75 124.251C550.347 122.789 549.768 122.057 549.013 122.057L526.064 121.509C522.793 121.326 519.773 118.949 517.005 114.377C514.287 109.806 512.098 102.857 510.437 93.5314C508.776 84.2057 507.946 72.96 507.946 59.7943C507.946 39.4971 509.657 24.5029 513.079 14.8114C516.502 4.93714 520.83 0 526.064 0H567.66C567.962 0 568.213 0.457142 568.415 1.37143C568.616 2.28571 568.717 3.38286 568.717 4.66286V52.3886C568.717 53.6686 568.616 54.7657 568.415 55.68C568.213 56.5943 567.962 57.0514 567.66 57.0514H528.933C528.127 57.0514 527.523 57.6914 527.121 58.9714C526.718 60.2514 526.517 61.8971 526.517 63.9086C526.517 65.92 526.718 67.6571 527.121 69.12C527.574 70.4 528.178 71.04 528.933 71.04L552.939 71.3143C557.972 71.3143 562.073 76.5257 565.244 86.9486C568.415 97.1886 570 112.183 570 131.931C570 143.269 569.245 153.509 567.735 162.651C566.276 171.794 564.237 179.017 561.62 184.32C559.054 189.44 556.16 192 552.939 192H510.664Z" fill="#8FD096"/>
</svg>
