<svg width="1204" height="336" viewBox="0 0 1204 336" fill="none" xmlns="http://www.w3.org/2000/svg">
<path d="M1204 308C1204 323.464 1191.46 336 1176 336L598.056 336C590.589 336 584.493 330.026 584.342 322.56C584.191 315.094 578.095 309.12 570.628 309.12L28 309.12C12.536 309.12 -2.6226e-05 296.584 -2.6226e-05 281.12V56.2948C-2.6226e-05 40.8308 12.536 28.2948 28 28.2948H559.054C566.912 28.2948 573.325 22.0043 573.476 14.1474C573.626 6.29043 580.039 -5.90086e-06 587.897 -5.90086e-06H1176C1191.46 -5.90086e-06 1204 12.536 1204 28V308Z" fill="#7CB082"/>
</svg>
