<svg preserveAspectRatio="none" width="618" height="501" viewBox="0 0 618 501" fill="none" xmlns="http://www.w3.org/2000/svg">
<path d="M618 473C618 488.464 605.464 501 590 501L320.116 501C309.026 501 300.014 492.05 299.936 480.96C299.859 469.87 290.847 460.92 279.756 460.92L28 460.92C12.536 460.92 4.52995e-06 448.384 4.52995e-06 432.92V70.1895C4.52995e-06 54.7255 12.536 42.1895 28 42.1895H273.124C284.797 42.1895 294.282 32.7675 294.359 21.0947C294.436 9.42195 303.92 -5.00679e-06 315.593 -5.00679e-06H590C605.464 -5.00679e-06 618 12.536 618 28V473Z" fill="#7CB082"/>
</svg>
