<svg width="36" height="36" viewBox="0 0 36 36" fill="none" xmlns="http://www.w3.org/2000/svg">
<path fill-rule="evenodd" clip-rule="evenodd" d="M26.1818 0H9.81818V3.27273H3.27273V9.81818H0V26.1818H3.27273V32.7273H9.81818V36H26.1818V32.7273H32.7273V26.1818H36V9.81818H32.7273V3.27273H26.1818V0ZM9.81818 11.4545V14.7273H13.0909V21.2727H9.81818V24.5455H6.54545V29.4545H11.4545V26.1818H14.7273V22.9091H21.2727V26.1818H24.5455V29.4545H29.4545V24.5455H26.1818V21.2727H22.9091V14.7273H26.1818V11.4545H29.4545V6.54545H24.5455V9.81818H21.2727V13.0909H14.7273V9.81818H11.4545V6.54545H6.54545V11.4545H9.81818Z" fill="#F26434"/>
</svg>
