<svg width="3825" height="200" viewBox="0 0 3825 200" fill="none" xmlns="http://www.w3.org/2000/svg">
<path d="M71.9969 76.8023C66.3103 108.059 60.8917 137.844 25.6891 141.502C-0.810646 141.502 -14.3105 199.5 25.6891 199.5C63.5454 199.5 67.8334 171.153 72.4502 140.633C77.8338 105.044 83.6645 66.5 143.689 66.5C202.491 66.5 207.059 102.516 211.443 137.074C215.372 168.046 219.152 197.846 261.689 199.5C299.545 199.5 303.833 171.153 308.45 140.633C313.834 105.044 319.664 66.5 379.689 66.5C438.491 66.5 443.059 102.516 447.443 137.074C451.372 168.046 455.152 197.846 497.689 199.5C535.545 199.5 539.833 171.153 544.45 140.633C549.834 105.044 555.664 66.5 615.689 66.5C674.491 66.5 679.059 102.516 683.443 137.074C687.372 168.046 691.152 197.846 733.689 199.5C771.545 199.5 775.833 171.153 780.45 140.633C785.834 105.044 791.664 66.5 851.689 66.5C910.491 66.5 915.059 102.516 919.443 137.074C923.372 168.046 927.152 197.846 969.689 199.5C1007.55 199.5 1011.83 171.153 1016.45 140.633C1021.83 105.044 1027.66 66.5 1087.69 66.5C1146.49 66.5 1151.06 102.516 1155.44 137.074C1159.37 168.046 1163.15 197.846 1205.69 199.5C1243.55 199.5 1247.83 171.153 1252.45 140.633C1257.83 105.044 1263.66 66.5 1323.69 66.5C1382.49 66.5 1387.06 102.516 1391.44 137.074C1395.37 168.046 1399.15 197.846 1441.69 199.5C1479.55 199.5 1483.83 171.153 1488.45 140.633C1493.83 105.044 1499.66 66.5 1559.69 66.5C1618.49 66.5 1623.06 102.516 1627.44 137.074C1631.37 168.046 1635.15 197.846 1677.69 199.5C1715.55 199.5 1719.83 171.153 1724.45 140.633C1729.83 105.044 1735.66 66.5 1795.69 66.5C1854.49 66.5 1859.06 102.516 1863.44 137.074C1867.37 168.046 1871.15 197.846 1913.69 199.5C1951.55 199.5 1955.83 171.153 1960.45 140.633C1965.83 105.044 1971.66 66.5 2031.69 66.5C2090.49 66.5 2095.06 102.516 2099.44 137.074C2103.37 168.046 2107.15 197.846 2149.69 199.5C2187.54 199.5 2191.83 171.153 2196.45 140.633C2201.83 105.044 2207.66 66.5 2267.69 66.5C2326.49 66.5 2331.06 102.516 2335.44 137.074C2339.37 168.046 2343.15 197.846 2385.69 199.5C2423.54 199.5 2427.83 171.153 2432.45 140.633C2437.83 105.044 2443.66 66.5 2503.69 66.5C2562.49 66.5 2567.06 102.516 2571.44 137.074C2575.37 168.046 2579.15 197.846 2621.69 199.5C2659.54 199.5 2663.83 171.153 2668.45 140.633C2673.83 105.044 2679.66 66.5 2739.69 66.5C2798.49 66.5 2803.06 102.516 2807.44 137.074C2811.37 168.046 2815.15 197.846 2857.69 199.5C2895.54 199.5 2899.83 171.153 2904.45 140.633C2909.83 105.044 2915.66 66.5 2975.69 66.5C3034.49 66.5 3039.06 102.516 3043.44 137.074C3047.37 168.046 3051.15 197.846 3093.69 199.5C3131.54 199.5 3135.83 171.153 3140.45 140.633C3145.83 105.044 3151.66 66.5 3211.69 66.5C3270.49 66.5 3275.06 102.516 3279.44 137.074C3283.37 168.046 3287.15 197.846 3329.69 199.5C3367.54 199.5 3371.83 171.153 3376.45 140.633C3381.83 105.044 3387.66 66.5 3447.69 66.5C3506.49 66.5 3511.06 102.516 3515.44 137.074C3519.37 168.046 3523.15 197.846 3565.69 199.5C3603.54 199.5 3607.83 171.153 3612.45 140.633C3617.83 105.044 3623.66 66.5 3683.69 66.5C3742.49 66.5 3747.06 102.516 3751.44 137.074C3755.37 168.046 3759.15 197.846 3801.69 199.5C3831.19 199.5 3831.69 141.5 3801.69 141.5C3764.02 140.105 3758.9 109.511 3753.49 77.1784C3747.27 39.989 3740.66 0.5 3683.69 0.5C3625.88 0.5 3618.75 39.6888 3612 76.8011C3606.31 108.058 3600.89 137.842 3565.69 141.5C3528.02 140.105 3522.9 109.511 3517.49 77.1784C3511.27 39.989 3504.66 0.5 3447.69 0.5C3389.88 0.5 3382.75 39.6894 3376 76.8022C3370.31 108.059 3364.89 137.844 3329.69 141.502C3292.02 140.107 3286.9 109.512 3281.49 77.1795C3275.27 39.9896 3268.66 0.5 3211.69 0.5C3153.88 0.5 3146.75 39.6888 3140 76.8011C3134.31 108.058 3128.89 137.842 3093.69 141.5C3056.02 140.105 3050.9 109.511 3045.49 77.1784C3039.27 39.989 3032.66 0.5 2975.69 0.5C2917.88 0.5 2910.75 39.6894 2904 76.8022C2898.31 108.059 2892.89 137.844 2857.69 141.502C2820.02 140.107 2814.9 109.512 2809.49 77.1795C2803.27 39.9896 2796.66 0.5 2739.69 0.5C2681.88 0.5 2674.75 39.6888 2668 76.8011C2662.31 108.058 2656.89 137.842 2621.69 141.5C2584.02 140.105 2578.9 109.511 2573.49 77.1784C2567.27 39.989 2560.66 0.5 2503.69 0.5C2445.88 0.5 2438.75 39.6894 2432 76.8022C2426.31 108.059 2420.89 137.844 2385.69 141.502C2348.02 140.107 2342.9 109.512 2337.49 77.1795C2331.27 39.9896 2324.66 0.5 2267.69 0.5C2209.88 0.5 2202.75 39.6888 2196 76.8011C2190.31 108.058 2184.89 137.842 2149.69 141.5C2112.02 140.105 2106.9 109.511 2101.49 77.1784C2095.27 39.989 2088.66 0.5 2031.69 0.5C1973.88 0.5 1966.75 39.6894 1960 76.8022C1954.31 108.059 1948.89 137.844 1913.69 141.502C1876.02 140.107 1870.9 109.512 1865.49 77.1795C1859.27 39.9896 1852.66 0.5 1795.69 0.5C1737.88 0.5 1730.75 39.6888 1724 76.8011C1718.31 108.058 1712.89 137.842 1677.69 141.5C1640.02 140.105 1634.9 109.511 1629.49 77.1784C1623.27 39.989 1616.66 0.5 1559.69 0.5C1501.88 0.5 1494.75 39.6894 1488 76.8022C1482.31 108.059 1476.89 137.844 1441.69 141.502C1404.02 140.107 1398.9 109.512 1393.49 77.1795C1387.27 39.9896 1380.66 0.5 1323.69 0.5C1265.88 0.5 1258.75 39.6888 1252 76.8011C1246.31 108.058 1240.89 137.842 1205.69 141.5C1168.02 140.105 1162.9 109.511 1157.49 77.1784C1151.27 39.989 1144.66 0.5 1087.69 0.5C1029.88 0.5 1022.75 39.6894 1016 76.8023C1010.31 108.059 1004.89 137.844 969.689 141.502C932.018 140.107 926.899 109.512 921.489 77.1795C915.267 39.9896 908.659 0.5 851.689 0.5C793.878 0.5 786.749 39.6888 779.997 76.8011C774.31 108.058 768.892 137.842 733.689 141.5C696.018 140.105 690.899 109.511 685.489 77.1784C679.267 39.989 672.659 0.5 615.689 0.5C557.878 0.5 550.749 39.6894 543.997 76.8022C538.31 108.059 532.892 137.844 497.689 141.502C460.019 140.107 454.899 109.512 449.489 77.1795C443.267 39.9896 436.659 0.5 379.689 0.5C321.878 0.5 314.749 39.6888 307.997 76.8011C302.31 108.058 296.892 137.842 261.689 141.5C224.019 140.105 218.899 109.511 213.49 77.1784C207.267 39.989 200.659 0.5 143.689 0.5C85.8785 0.5 78.7488 39.6894 71.9969 76.8023Z" fill="#D9D9D9" stroke="black"/>
</svg>
