<svg width="100" height="100" viewBox="0 0 100 100" fill="none" xmlns="http://www.w3.org/2000/svg">
<path fill-rule="evenodd" clip-rule="evenodd" d="M37.5 0H100V25H37.5V0ZM37.5 75H100V100H37.5V75ZM18.75 6.25V18.75H6.25V6.25H18.75ZM25 0H0V25H25V0ZM18.75 81.25V93.75H6.25V81.25H18.75ZM25 75H0V100H25V75Z" fill="#FFFCE5" fill-opacity="0.8"/>
<path fill-rule="evenodd" clip-rule="evenodd" d="M0 37.5V62.5H25V37.5H0ZM18.75 56.25H6.25V43.75H18.75V56.25Z" fill="#FFD376"/>
<path d="M37.5 37.5H100V62.5H37.5V37.5Z" fill="#FFD376"/>
<path d="M6.25 56.25V50H3.125V43.75H6.25V40.625H12.5V46.875H18.75V40.625H25V37.5H31.25V34.375H37.5V43.75H31.25V50H25V56.25H18.75V59.375H12.5V56.25H6.25Z" fill="#2E67B2"/>
</svg>
