<svg width="100" height="100" viewBox="0 0 100 100" fill="none" xmlns="http://www.w3.org/2000/svg">
<path fill-rule="evenodd" clip-rule="evenodd" d="M89 63.7143H83.4286V68.3571H16.5714V73H11V12.6429H16.5714V8H83.4286V12.6429H89V63.7143Z" fill="#2E67B2"/>
<path fill-rule="evenodd" clip-rule="evenodd" d="M5.55556 4.54545V0H94.4444V4.54545H100V95.4545H94.4444V100H5.55556V95.4545H0V4.54545H5.55556ZM88.8889 63.6364H83.3333V68.1818H16.6667V72.7273H11.1111V13.6364H16.6667V9.09091H83.3333V13.6364H88.8889V63.6364ZM16.6667 81.8182V77.2727H83.3333H88.8889V81.8182V86.3636V90.9091H83.3333H16.6667V86.3636H11.1111V81.8182H16.6667Z" fill="#323031"/>
<path d="M16.5714 81.6667V77H83.4286H89V81.6667V86.3333V91H83.4286H16.5714V86.3333H11V81.6667H16.5714Z" fill="#FFFCE5"/>
<path d="M47 52.1667V49.8889H53V52.1667H56V56.7222H53V59H47V56.7222H44V52.1667H47Z" fill="#F26434"/>
<path d="M53 40.7778H47V38.5H44V20.2778H47V18H53V20.2778H56V38.5H53V40.7778Z" fill="#F26434"/>
</svg>
