<svg width="100" height="100" viewBox="0 0 100 100" fill="none" xmlns="http://www.w3.org/2000/svg">
<path fill-rule="evenodd" clip-rule="evenodd" d="M7.14286 5V0H64.2857H67.8571H71.4286V2.5V5H75H78.5714V7.5V10H82.1429H85.7143V12.5V15H89.2857H92.8571V17.5V20H96.4286H100V22.5V25V95H92.8571V100H7.14286V95H0V5H7.14286ZM64.2857 10H53.5714H21.4286V15H14.2857V85H21.4286V90H78.5714V85H85.7143V32.5L89.2857 25V22.5H82.1429V20H78.5714H75V17.5V15H71.4286H67.8571V12.5V10H64.2857Z" fill="#FFFCE5"/>
<path d="M71.4286 20H67.8571H64.2857V10H53.5714V27.5H57.1429V30H60.7143V32.5H85.7143L89.2857 25H71.4286V22.5V20Z" fill="#FFFCE5"/>
<path d="M21.4286 10V15H14.2857V85H21.4286V90H78.5714V85H85.7143V32.5H60.7143V30H57.1429V27.5H53.5714V10H21.4286Z" fill="#FFFCE5"/>
<path fill-rule="evenodd" clip-rule="evenodd" d="M32.1433 27.5H39.2861V30H42.8576V35H46.429V40H50.0004V45H53.5718V47.5V52.5H57.1433V60H50.0004V57.5H46.429V55H25.0004V57.5H21.429V60H14.2861V52.5H17.8576V47.5V45H21.429V40H25.0004V35H28.5718V30H32.1433V27.5ZM46.429 50H25.0004V45H28.5718V40H32.1433V35H39.2861V40H42.8576V45H46.429V50Z" fill="#2E67B2"/>
<path d="M67.8569 47.5V40H74.9997V47.5H85.714V52.5H74.9997V60H67.8569V52.5H57.1426V47.5H67.8569Z" fill="#2E67B2"/>
<path d="M17.8576 71.6667V70H82.1433V71.6667H85.7147V73.3333H82.1433V75H17.8576V73.3333H14.2861V71.6667H17.8576Z" fill="#2E67B2"/>
<path d="M17.8576 81.6667V80H82.1433V81.6667H85.7147V83.3333H82.1433V85H17.8576V83.3333H14.2861V81.6667H17.8576Z" fill="#2E67B2"/>
</svg>
