<svg width="100" height="100" viewBox="0 0 100 100" fill="none" xmlns="http://www.w3.org/2000/svg">
<path fill-rule="evenodd" clip-rule="evenodd" d="M14.6066 33V37.25H11.001V62.75H14.6066V67H39.3953V62.75H43.001V37.25H39.3953V33H14.6066ZM14.6066 58.5V41.5H18.2122V37.25H35.7897V41.5H39.3953V58.5H35.7897V62.75H18.2122V58.5H14.6066Z" fill="#323031"/>
<path fill-rule="evenodd" clip-rule="evenodd" d="M8.33333 22V27.6H4.16667V38.8H0V61.2H4.16667V72.4H8.33333V78H45.8333V72.4H50V27.6H45.8333V22H8.33333ZM12.5 61.2V38.8H16.6667V33.2H37.5V38.8H41.6667V61.2H37.5V66.8H16.6667V61.2H12.5Z" fill="#8FD096"/>
<path fill-rule="evenodd" clip-rule="evenodd" d="M65.401 5V9.375H62.001V35.625H65.401V40H92.601V35.625H96.001V9.375H92.601V5H65.401ZM65.401 31.25V13.75H68.801V9.375H89.201V13.75H92.601V31.25H89.201V35.625H68.801V31.25H65.401Z" fill="#323031"/>
<path fill-rule="evenodd" clip-rule="evenodd" d="M65.401 59V63.625H62.001V91.375H65.401V96H92.601V91.375H96.001V63.625H92.601V59H65.401ZM65.401 86.75V68.25H68.801V63.625H89.201V68.25H92.601V86.75H89.201V91.375H68.801V86.75H65.401Z" fill="#323031"/>
<path fill-rule="evenodd" clip-rule="evenodd" d="M62.2 0V5.5H58V38.5H62.2V44H95.8V38.5H100V5.5H95.8V0H62.2ZM62.2 33V11H66.4V5.5H91.6V11H95.8V33H91.6V38.5H66.4V33H62.2Z" fill="#2E67B2"/>
<path fill-rule="evenodd" clip-rule="evenodd" d="M62.2 56V61.5H58V94.5H62.2V100H95.8V94.5H100V61.5H95.8V56H62.2ZM62.2 89V67H66.4V61.5H91.6V67H95.8V89H91.6V94.5H66.4V89H62.2Z" fill="#FFD376"/>
<path d="M46.501 44.5H41.001V55.5H46.501V66.5H52.001V77.5H57.501V83H63.001V72H57.501V61H52.001V39H57.501V28H63.001V17H57.501V22.5H52.001V33.5H46.501V39V44.5Z" fill="#323031"/>
</svg>
