<svg width="100" height="101" viewBox="0 0 100 101" fill="none" xmlns="http://www.w3.org/2000/svg">
<path d="M3.125 100.591H34.375H37.5V96.8652V93.1396H40.625V89.4141H46.875V85.6885H53.125V81.9629H59.375V78.2373H65.625V74.5117V70.7861H59.375V67.0605H56.25V63.335H65.625V55.8838H68.75V52.1582H71.875V44.707H68.75V40.9814H65.625V33.5303H62.5V18.6279H59.375V11.1768H56.25V7.45117H53.125V3.72559H46.875V0H28.125H18.75V3.72559H9.375V11.1768H3.125V18.6279H0V40.9814H3.125V55.8838H6.25V59.6094H9.375V70.7861H12.5V78.2373H9.375V85.6885H6.25V93.1396V96.8652H3.125V100.591Z" fill="#FFFCE5"/>
<path d="M84.375 55.8828H78.125V59.6084H71.875V52.1572H75V44.7061H78.125V40.9805H84.375V44.7061H87.5V52.1572H84.375V55.8828Z" fill="#8FD096"/>
<path d="M84.375 78.2383H78.125V74.5127H71.875V81.9639H75V89.415H78.125V93.1406H84.375V89.415H87.5V81.9639H84.375V78.2383Z" fill="#F26434"/>
<path d="M71.875 70.7852V63.334H81.25V59.6084H87.5V55.8828H93.75V59.6084H96.875V63.334H100V70.7852H96.875V74.5107H93.75V78.2363H87.5V74.5107H81.25V70.7852H78.125H71.875Z" fill="#FFD376"/>
</svg>
