<svg width="77" height="80" viewBox="0 0 77 80" fill="none" xmlns="http://www.w3.org/2000/svg">
<g id="Flower 2 - Become ">
<path id="Vector" d="M25.7741 14.511C23.8741 12.9032 21.5941 11.9261 19.2941 11.1841C16.1141 10.1576 12.7141 9.53915 9.50407 10.4296C3.09407 12.1982 -1.03593 20.3856 0.594072 27.4352C2.22407 34.4724 8.98407 39.4442 15.5741 38.9C9.88407 40.0502 4.63407 44.0202 1.94407 49.6599C-0.745926 55.2996 -0.685931 62.4975 2.38407 67.8898C5.45407 73.2821 11.5341 76.5225 17.2441 75.4712C22.9541 74.42 27.8341 68.9411 28.3641 62.6089C27.2641 68.7803 30.8141 75.2733 35.9341 78.0932C41.0541 80.9006 47.3241 80.4183 52.5641 77.8829C55.9341 76.2504 59.1441 73.5914 60.3941 69.7698C61.0641 67.7415 61.1341 65.5276 60.8841 63.4004C60.2941 58.342 57.9041 53.5681 54.3241 50.3154C62.3541 53.3084 72.1241 48.5839 75.5441 40.0502C77.0341 36.3276 77.3441 31.801 75.4541 28.2886C74.4641 26.4458 72.9341 24.9988 71.3141 23.8115C66.6041 20.3609 60.1741 18.852 55.3141 22.0181C58.9541 20.0888 60.9941 15.2777 60.3641 10.8872C59.7341 6.4967 56.7041 2.73693 52.9541 1.07967C49.2041 -0.577602 44.8541 -0.243668 41.1441 1.51254C33.9441 4.91365 30.2141 13.0887 30.1541 21.3379C29.2841 18.6789 27.8441 16.2672 25.7841 14.5357L25.7741 14.511Z" fill="#827237"/>
<g id="Vector_2" opacity="0.33" style="mix-blend-mode:multiply">
<path d="M20.2943 14.4365C23.2643 16.5143 25.5043 19.8288 26.4343 23.5639C24.5043 22.1292 22.5443 20.707 20.3643 19.8041C18.1843 18.9013 15.7443 18.5549 13.5243 19.3465C18.0043 20.6946 22.0543 23.7123 24.8743 27.7689C20.4743 25.5798 15.4343 24.9614 10.7043 26.0374C15.7843 26.9526 20.6543 29.2283 24.7643 32.6417C21.9443 32.9509 19.1243 33.2601 16.3043 33.5817C14.8243 33.7425 13.2543 33.9403 12.0643 34.9298C16.3643 34.3856 20.7943 35.2019 24.7143 37.2302C21.0243 38.0835 17.4143 39.345 13.9443 40.9899C11.5243 42.1401 9.01428 43.649 7.88428 46.2709C11.7743 42.9193 16.6343 40.9404 21.5743 40.7178C15.7643 42.9811 11.1343 48.6084 9.65428 55.188C12.8943 50.2533 17.7143 46.6049 23.0643 45.0342C18.5843 48.6579 16.6443 54.8665 14.9643 60.6917C18.1743 56.8948 21.3743 53.0979 24.5843 49.2887C22.9243 54.4212 20.7443 59.3559 18.0943 63.9567C22.0143 59.8012 26.0343 55.4972 28.2043 50.0183C27.5843 54.8912 26.2443 59.6651 24.2443 64.068C27.1343 60.5803 29.3643 56.4371 30.7743 51.9724C29.5043 57.1421 30.2443 62.8684 32.7643 67.4568C32.7443 63.7217 33.2143 59.9743 34.1643 56.3877C33.8343 59.0467 34.5943 61.7676 35.9043 64.0433C37.2043 66.3066 39.0243 68.1741 40.9343 69.8437C39.2843 64.9338 38.2243 59.7764 37.7843 54.5696C40.4743 59.3188 42.9743 64.204 45.2843 69.1882C45.0843 63.6104 44.1043 58.0573 42.3843 52.8011C46.4443 55.9919 49.5743 60.5803 51.2143 65.75C50.4443 60.1969 48.4843 54.8417 45.5543 50.241C50.2743 53.2463 54.1243 57.8842 56.3843 63.3383C55.2843 56.87 52.4343 50.7728 48.2943 46.0236C53.5243 47.4953 59.0743 47.6314 64.3543 46.3946C60.9143 45.6649 57.5743 44.4281 54.4343 42.709C58.0843 42.5235 61.6943 41.4847 64.9543 39.6666C61.2343 39.3698 57.5143 39.1471 53.7943 38.9987C57.7143 36.8715 61.9343 35.4245 66.2543 34.7319C62.0143 33.458 57.4343 33.5817 53.2643 35.0782C56.1943 31.6523 60.7243 30.6506 64.9343 29.8343C60.9443 28.6965 56.5943 29.1293 52.8643 31.0463C55.5243 27.5215 59.9443 26.4084 64.0243 25.5056C59.5443 25.1346 54.9643 26.5198 51.2743 29.3396C53.1543 26.3713 56.2443 24.6646 59.1943 23.0692C54.7943 23.6999 50.6043 25.9509 47.4643 29.3891C49.0443 27.2 51.1443 25.5427 52.8443 23.4649C54.5443 21.3872 55.8843 18.6292 55.3943 15.8959C52.7043 19.8165 49.1843 23.0444 45.1943 25.2582C47.8143 21.1645 50.1543 16.0814 48.7043 11.3323C47.7843 15.8465 45.6443 20.0391 42.6243 23.2547C43.5543 19.161 43.9143 14.9189 43.6843 10.7139C42.5843 14.6344 41.4943 18.5673 40.3943 22.4879C39.1643 19.0373 41.2243 15.1909 40.9243 11.5054C38.6443 15.4754 37.0643 19.9278 36.3043 24.5533C34.0943 21.7335 36.3443 17.1945 35.1743 13.7068C33.8943 17.3553 32.9243 21.6964 31.1343 25.0604C30.3843 24.6522 29.7943 22.525 29.2743 21.6964C28.5643 20.5462 27.7343 19.4949 26.8043 18.555C24.9543 16.6751 22.7143 15.2281 20.2943 14.4489V14.4365Z" fill="#827237"/>
</g>
<path id="Vector_3" d="M30.8642 29.636C30.0242 30.0565 29.5442 31.3922 30.1742 32.1467C30.0342 31.9364 29.7342 31.924 29.5342 32.0601C29.3342 32.1961 29.2042 32.4311 29.0942 32.6661C28.7442 33.3958 28.4342 34.1997 28.5142 35.016C28.5842 35.8322 29.1542 36.6609 29.9142 36.6856C29.4942 36.5125 29.1142 37.069 29.0442 37.5637C28.9042 38.4666 29.1742 39.4312 29.7542 40.0991C30.3342 40.7546 31.1942 41.1009 32.0242 40.9896C31.6642 41.1998 31.6042 41.7811 31.7942 42.1892C31.9842 42.585 32.3442 42.8447 32.7042 43.0797C33.4042 43.5373 34.3542 43.9207 34.9842 43.3518C36.1542 44.2423 37.9042 44.0567 38.8942 42.9313C40.2142 43.3765 41.7742 42.5479 42.2742 41.138C43.2742 40.8659 43.9842 39.6415 43.7742 38.5284C43.7442 38.3429 43.6842 38.1574 43.7342 37.9718C43.7842 37.7987 43.9142 37.675 44.0342 37.5513C44.5742 36.9082 44.5642 35.8075 44.0042 35.1768C44.4942 34.9418 44.6742 34.2244 44.5042 33.6555C44.3342 33.099 43.9042 32.6785 43.4442 32.3693C43.8942 31.9611 43.8542 31.1325 43.4742 30.6502C43.0942 30.1679 42.4742 29.9823 41.8942 29.9823C42.0542 29.3021 41.5442 28.6095 40.9342 28.424C40.3242 28.2509 39.6642 28.4735 39.1242 28.8321C38.7842 27.8304 37.3542 27.5706 36.7342 28.3993C36.8742 27.9911 36.3042 27.7809 35.9142 27.8304C34.8342 27.9788 34.3542 28.5353 33.5642 29.2155C32.7742 29.8834 31.8542 29.1537 30.8942 29.6237L30.8642 29.636Z" fill="#827237"/>
<path id="Vector_4" d="M34.2343 31.9737C33.7143 32.1963 33.4443 33.0249 33.8343 33.4702C33.2543 33.6186 32.7043 34.0762 32.5743 34.7193C32.4443 35.3624 32.8943 36.1168 33.4943 36.1045C33.0843 36.4879 33.1943 37.2794 33.5943 37.6752C33.9943 38.0709 34.5843 38.1328 35.1243 38.0586C34.9043 37.9967 34.7243 38.3059 34.7943 38.5409C34.8643 38.7759 35.0743 38.9243 35.2643 39.0356C35.6043 39.2335 35.9743 39.419 36.3643 39.3819C36.7543 39.3448 37.1343 39.0356 37.1643 38.6151C37.8943 39.0851 38.9743 38.6028 39.2043 37.6999C39.5843 37.5762 39.9843 37.4031 40.1943 37.0321C40.4043 36.661 40.2743 36.055 39.8843 35.9808C40.2443 35.7829 40.4043 35.2511 40.2343 34.8553C40.0543 34.4596 39.5643 34.2741 39.2043 34.4719C39.5243 34.1627 39.5843 33.5815 39.3443 33.1981C39.1043 32.8147 38.5843 32.6786 38.2043 32.9013C38.4243 32.8147 38.5043 32.4808 38.4043 32.2458C38.3043 32.0108 38.0843 31.8624 37.8643 31.7634C37.1443 31.4666 36.6743 31.7634 36.0143 31.9737C35.3843 32.1716 34.8443 31.714 34.2243 31.9737H34.2343Z" fill="#827237"/>
</g>
</svg>
