<svg width="635" height="686" viewBox="0 0 635 686" fill="none" xmlns="http://www.w3.org/2000/svg">
<g id="Flower 4 - Cover">
<path id="Vector" d="M384.458 385.469C408.437 423.243 423.459 566.105 423.459 566.105C423.459 566.105 587.989 448.667 606.263 351.017C624.536 253.368 662.815 204.399 597.018 161.497C531.292 118.668 464.556 125.89 402.153 201.366C402.153 201.366 464.484 112.24 423.821 64.4985C383.158 16.7573 321.405 0.289888 267.235 0.000985892C213.066 -0.215691 163.447 35.3193 132.896 70.8543C132.896 70.8543 249.179 52.4368 288.036 107.112C326.894 161.714 300.748 194.866 268.824 166.914C236.973 138.963 179.048 70.8543 116.212 94.3999C116.212 94.3999 65.2926 131.813 49.6196 188.654C49.6196 188.654 166.192 135.207 236.467 201.149C306.743 267.091 211.26 221.372 192.554 208.155C173.848 194.938 50.703 185.838 23.7628 226.573C23.7628 226.573 -8.52201 288.903 5.85088 341.628C5.85088 341.628 112.961 251.563 180.998 286.087C249.035 320.538 196.888 328.989 161.28 325.594C125.673 322.127 22.7517 331.878 0.000626957 375.574C0.000626957 375.574 -0.360501 472.212 16.2514 483.985C16.2514 483.985 92.3049 378.319 149.941 386.408C207.577 394.57 192.193 418.043 168.864 425.193C145.607 432.271 6.35645 449.822 30.552 525.803C54.7476 601.785 90.427 685.855 90.427 685.855C90.427 685.855 123.217 657.399 173.487 672.133C223.756 686.867 291.142 655.665 275.252 606.335C259.363 557.077 224.333 439.927 265.285 443.538C306.237 447.15 309.921 598.318 295.548 644.253C295.548 644.253 393.197 616.302 405.258 565.961C405.258 565.961 380.557 440.722 357.662 406.415C334.766 372.107 360.262 347.551 384.313 385.397L384.458 385.469ZM456.322 232.495C494.891 247.085 545.521 349.862 545.521 349.862C583.078 414.432 524.07 428.949 520.458 426.349C516.847 423.821 517.858 386.48 464.195 343.145C410.603 299.809 417.754 217.906 456.322 232.495Z" fill="#556F8C"/>
<g id="Group">
<path id="Vector_2" d="M464.193 343.073C517.784 386.409 516.773 423.749 520.457 426.277C524.14 428.805 583.076 414.36 545.519 349.79C545.519 349.79 494.961 247.013 456.32 232.424C417.752 217.834 410.529 299.738 464.193 343.073Z" fill="#556F8C"/>
<path id="Vector_3" d="M268.895 166.987C237.044 139.035 179.119 70.9266 116.282 94.4721C116.282 94.4721 65.3634 131.885 49.6904 188.727C49.6904 188.727 166.263 135.28 236.538 201.222C306.814 267.164 211.331 221.445 192.625 208.227C173.919 195.01 50.7738 185.91 23.8336 226.645C23.8336 226.645 -8.45121 288.976 5.92169 341.7C5.92169 341.7 113.032 251.635 181.069 286.159C249.105 320.611 196.958 329.061 161.351 325.666C125.744 322.199 22.8225 331.95 0.0714277 375.646C0.0714277 375.646 -0.2897 472.284 16.3222 484.057C16.3222 484.057 92.3757 378.391 150.012 386.48C207.648 394.642 192.264 418.115 168.935 425.265C145.678 432.344 6.42725 449.894 30.6228 525.876C54.8184 601.857 90.4979 685.928 90.4979 685.928C90.4979 685.928 90.4979 685.928 90.6423 685.856C97.576 658.554 112.743 611.174 144.162 556.138C184.752 484.924 335.198 287.892 407.93 194.577C405.979 196.744 404.029 199.055 402.151 201.366C402.151 201.366 464.482 112.24 423.819 64.4985C383.156 16.7573 321.403 0.289888 267.234 0.000985892C213.065 -0.215691 163.446 35.3193 132.894 70.8543C132.894 70.8543 249.178 52.4368 288.035 107.112C326.892 161.714 300.747 194.866 268.823 166.914L268.895 166.987Z" fill="#556F8C"/>
</g>
<path id="Vector_4" d="M243.038 412.049C248.599 422.594 253.439 433.5 257.772 444.695C259.939 443.756 262.467 443.322 265.428 443.611C306.38 447.222 310.063 598.391 295.691 644.326C295.691 644.326 393.34 616.375 405.401 566.034C405.401 566.034 380.7 440.794 357.805 406.487C345.382 387.853 347.26 372.18 355.349 367.702C342.854 344.084 330.359 323.789 320.392 308.549C294.752 342.351 268.028 378.03 243.11 412.049H243.038Z" fill="#556F8C"/>
<path id="Vector_5" d="M268.895 166.987C237.044 139.036 179.119 70.9271 116.282 94.4727C116.282 94.4727 65.3634 131.886 49.6904 188.727C49.6904 188.727 166.263 135.28 236.538 201.222C255.028 218.556 262.034 228.162 261.962 232.713C274.89 239.574 290.635 249.541 306.669 263.842C317.503 273.52 326.17 283.126 333.104 291.793C352.605 266.153 371.167 242.03 387.49 221.012C381.784 210.25 372.9 196.311 359.394 182.516C340.11 162.798 319.887 151.82 306.453 145.97C312.375 175.293 292.152 187.499 268.895 167.059V166.987Z" fill="#556F8C"/>
<path id="Vector_6" d="M379.98 225.635C471.49 169.877 565.239 178.905 593.696 294.394C563 181.722 472.429 174.21 383.591 231.052C380.052 233.652 376.152 228.018 379.908 225.635H379.98Z" fill="#556F8C"/>
<path id="Vector_7" d="M363.441 246.87C401.288 171.033 390.454 86.1678 307.828 47.816C284.354 36.0432 258.642 29.1095 232.857 24.126C258.786 28.5317 284.643 34.9598 308.55 46.3715C359.108 68.1114 393.126 116.864 388.937 172.694C387.637 199.49 380.776 225.563 369.219 249.975C367.269 253.948 361.202 250.842 363.441 246.942V246.87Z" fill="#556F8C"/>
<path id="Vector_8" d="M189.592 643.316C205.121 590.88 217.76 529.921 193.276 478.497C191.326 474.741 197.104 471.635 199.054 475.463C222.383 529.127 207.504 590.302 189.592 643.243V643.316Z" fill="#556F8C"/>
<path id="Vector_9" d="M67.9653 577.082C89.9219 543.57 126.902 519.663 167.131 515.979C168.937 515.763 170.598 516.99 170.815 518.796C171.031 520.602 169.804 522.263 167.998 522.48C128.563 523.852 91.2943 545.447 68.0376 577.082H67.9653Z" fill="#556F8C"/>
<path id="Vector_10" d="M24.6299 416.889C72.0099 347.48 168.142 343.724 243.474 357.88L276.914 365.392C278.647 365.753 279.803 367.559 279.37 369.292C278.936 371.17 276.986 372.253 275.181 371.676L242.318 363.442C168.214 347.624 73.021 349.213 24.6299 416.817V416.889Z" fill="#556F8C"/>
<path id="Vector_11" d="M373.044 560.398C359.754 486.439 339.603 407.713 287.601 351.016C284.639 348.055 289.406 343.36 292.295 346.466C343.503 405.402 361.704 485.067 373.044 560.398Z" fill="#556F8C"/>
<path id="Vector_12" d="M468.961 481.457C452.854 401.937 417.608 320.033 350.005 271.57C346.394 269.186 350.077 263.553 353.688 266.153C421.003 317.072 454.804 400.492 468.961 481.457Z" fill="#556F8C"/>
<path id="Vector_13" d="M60.1646 239.719C139.829 214.006 228.956 231.124 300.315 272.365C310.643 278.287 320.394 285.148 330.505 291.504C334.044 293.671 330.577 299.377 327.038 297.066C312.954 287.387 297.354 276.626 282.114 268.609C215.522 232.135 133.835 217.834 60.1646 239.719Z" fill="#556F8C"/>
<path id="Vector_14" d="M97.7935 136.001C175.075 110.867 272.002 180.637 328.482 228.522L356 253.151C357.372 254.379 357.445 256.401 356.289 257.774C355.061 259.218 352.822 259.218 351.522 257.846L324.726 232.784C268.607 183.526 176.592 113.106 97.8656 136.001H97.7935Z" fill="#556F8C"/>
<g id="Group_2">
<path id="Vector_15" d="M156.512 639.703C169.079 597.74 176.302 553.465 172.257 509.624L175.507 509.335C178.469 553.61 170.163 597.812 156.512 639.703Z" fill="#556F8C"/>
<path id="Vector_16" d="M49.4034 500.019C94.2555 460.006 156.586 441.01 216.172 447.8L215.739 451.05C156.731 443.249 94.6165 461.089 49.3311 500.019H49.4034Z" fill="#556F8C"/>
<path id="Vector_17" d="M327.401 578.671C323.212 544.725 316.639 510.996 306.744 478.205C296.777 446.137 284.21 412.697 259.942 388.79L262.181 386.407C286.665 411.325 298.727 444.982 308.333 477.772C317.65 510.779 323.789 544.581 327.401 578.671Z" fill="#556F8C"/>
<path id="Vector_18" d="M77.064 274.746C156.44 250.262 248.6 264.851 306.669 327.182L304.286 329.421C247.444 266.802 156.079 251.562 77.064 274.746Z" fill="#556F8C"/>
<path id="Vector_19" d="M422.737 417.175C411.686 364.306 381.279 315.843 339.316 281.969L341.41 279.441C382.94 314.398 412.697 363.728 422.737 417.175Z" fill="#556F8C"/>
<path id="Vector_20" d="M356.796 258.423C373.191 164.674 337.728 70.636 238.418 46.3682C309.56 62.7634 354.99 119.244 361.635 191.181C364.091 213.787 363.729 236.61 359.974 259.145L356.796 258.495V258.423Z" fill="#556F8C"/>
<path id="Vector_21" d="M390.812 210.103C454.226 150.589 540.391 139.827 603.733 205.552C540.102 141.344 455.165 152.683 393.123 212.414L390.812 210.103Z" fill="#556F8C"/>
</g>
<path id="Vector_22" d="M90.5713 686C102.2 622.08 134.773 563.505 169.225 509.192C204.616 454.878 242.173 402.081 279.947 349.429C317.793 296.848 356.145 244.701 395.002 192.843C404.536 180.059 429.526 147.269 438.699 134.991C461.161 102.995 478.784 66.9541 493.663 30.9136C496.624 23.041 505.58 19.0686 513.452 22.3187C521.325 25.4966 524.936 34.7415 521.469 42.4697C507.602 72.9489 492.218 101.767 473.801 129.718C458.128 153.553 430.826 184.176 412.986 206.855C372.323 257.124 332.094 307.754 292.37 358.746C252.718 409.809 213.283 461.089 176.086 513.742C139.901 566.467 104.944 622.947 90.6435 685.928L90.5713 686Z" fill="#556F8C"/>
<g id="Vector_23" opacity="0.28" style="mix-blend-mode:screen">
<path d="M589.433 181.359C620.851 203.605 617.384 223.25 601.422 282.114C596.294 301.037 590.516 322.56 585.894 347.189C584.305 355.784 581.271 364.812 577.082 373.913C575.132 363.946 570.943 352.606 563.72 339.967C557.87 328.122 517.568 248.746 478.494 221.155C473.511 217.616 468.527 214.872 463.616 213.066C443.537 205.483 423.819 212.488 413.202 230.906C395.146 262.396 406.269 322.777 451.193 359.106C488.389 389.152 495.323 414.792 498.284 425.771C499.873 431.621 501.679 438.338 508.54 443.177C513.451 446.644 519.591 447.655 525.946 447.005C497.923 478.206 465.277 507.169 439.564 527.825C433.281 481.023 420.425 403.67 401.863 374.418C396.157 365.39 389.729 358.384 382.94 353.545C367.772 342.856 350.438 343.217 338.737 354.628C326.531 366.473 322.414 390.669 340.615 418.043C355.06 439.71 374.489 517.497 384.095 565.094C376.584 584.089 347.766 601.423 321.692 612.907C327.181 553.61 322.414 455.817 286.229 430.249C280.451 426.132 274.023 423.748 267.234 423.171C254.739 422.087 243.689 426.637 236.249 436.099C223.827 451.7 214.798 485.935 255.75 612.907C257.628 618.83 259.073 627.786 249.611 637.536C234.516 653.065 203.676 659.637 179.408 652.487C145.967 642.664 118.594 648.803 100.682 656.459C88.6201 626.775 66.6635 571.016 50.3405 519.664C46.5848 507.747 49.4016 500.669 51.9295 496.407C67.8914 468.745 131.161 454.95 158.173 449.1C165.685 447.438 171.102 446.283 175.074 445.055C190.169 440.432 207.359 429.238 210.176 411.614C212.126 399.481 206.781 387.997 195.514 380.052C186.125 373.407 172.185 368.857 152.973 366.185C105.738 359.54 54.2408 407.498 24.3394 441.444C22.3171 424.832 20.9447 403.164 20.8003 381.641C40.9512 354.773 120.761 342.639 159.401 346.322C178.324 348.128 223.393 349.573 233.216 323.138C236.972 313.099 236.538 297.642 213.354 281.319C207.215 276.986 199.775 272.58 190.458 267.885C134.628 239.573 63.5578 276.48 23.2559 303.42C25.5672 272.363 38.7845 243.401 41.6735 237.406C47.9571 229.317 69.1193 219.711 109.638 218.122C144.884 216.677 174.713 222.094 181.069 225.489C189.519 231.412 206.42 240.295 221.443 246.796C241.738 255.535 264.562 263.624 277.418 247.807C294.246 227.222 269.112 203.605 250.694 186.343C246.144 182.009 241.233 178.037 236.105 174.425C188.147 140.552 128.85 145.174 88.259 154.636C102.849 132.824 120.183 117.873 126.25 112.962C147.051 106.317 169.585 112.311 196.814 131.523C212.776 142.791 227.221 156.441 239.933 168.503C245.35 173.631 250.55 178.542 255.245 182.659C257.339 184.465 259.506 186.198 261.6 187.715C285.146 204.399 305.803 197.971 316.275 187.498C330.793 172.909 336.571 140.046 304.791 95.4107C299.013 87.3214 291.719 80.0988 283.051 73.9597C256.472 55.181 220.071 49.0418 189.375 47.814C210.176 33.4411 237.044 20.8016 267.09 20.9461C311.075 21.1627 351.666 32.8633 381.495 53.9532C391.39 60.959 400.346 69.1205 408.074 78.1487C432.703 107.111 398.974 170.02 385.179 189.81L417.969 214.8C470.405 151.386 525.224 139.685 585.677 179.12C586.977 179.987 588.205 180.781 589.36 181.648L589.433 181.359Z" fill="#556F8C"/>
</g>
</g>
</svg>
