<svg width="110" height="72" viewBox="0 0 110 72" fill="none" xmlns="http://www.w3.org/2000/svg">
<g clip-path="url(#clip0_3230_2078)">
<path d="M10.3822 8.70898H3.99512V51.6767H10.3822V8.70898Z" fill="#323031"/>
<path d="M7.54839 16.8379H0V52.8379H7.54839V16.8379Z" fill="#323031"/>
<path d="M20.6948 2.48828H10.2432V61.7141H20.6948V2.48828Z" fill="#323031"/>
<path d="M40.3669 0H20.625V72H40.3669V0Z" fill="#323031"/>
<path d="M49.7902 1.16211H37.5967V70.8395H49.7902V1.16211Z" fill="#323031"/>
<path d="M66.1932 12.1934H56.3223V59.8063H66.1932V12.1934Z" fill="#323031"/>
<path d="M57.6609 5.33398H44.3545V68.4451H57.6609V5.33398Z" fill="#323031"/>
<path d="M63.2905 65.0328V9.87147H56.0325V3.48438H48.7744V65.0328H63.2905Z" fill="#323031"/>
<path d="M17.3505 41.2266H3.41504V61.5491H17.3505V41.2266Z" fill="#141314"/>
<path d="M22.6453 53.4199H9.87109V69.678H22.6453V53.4199Z" fill="#141314"/>
<path d="M101.406 29.0312H56.1152V32.7474H91.9701V34.2571H101.406V29.0312Z" fill="#FFE4A3"/>
<path d="M94.54 19.8516H53.2695V29.1419H97.9792V24.4967H94.54V19.8516Z" fill="#F8A65A"/>
<path d="M76.6456 11.6133H50.5166V22.0649H76.6456V11.6133Z" fill="#F69137"/>
<path d="M86.0174 14.5156H55.2432V20.3221H86.0174V14.5156Z" fill="#F69137"/>
<path d="M91.1617 17.4199H54.5811V22.0651H84.5107H91.1617V20.9931V17.4199Z" fill="#F69137"/>
<path d="M50.516 4.64453H33.0967V40.6445H50.516V4.64453Z" fill="#FFDB8C"/>
<path d="M49.3552 6.9668H29.6133V40.0636H49.3552V6.9668Z" fill="#FFDB8C"/>
<path d="M43.5483 11.6113H26.1289V31.9339H43.5483V11.6113Z" fill="#FFDB8C"/>
<path d="M54.5803 6.38672H38.3223V38.9028H54.5803V6.38672Z" fill="#FFDB8C"/>
<path d="M56.3229 8.12891H40.6455V36.5805H56.3229V8.12891Z" fill="#FFDB8C"/>
<path opacity="0.6" d="M51.5625 10.2852H41.25V20.5709H51.5625V10.2852Z" fill="#2E67B2"/>
<path d="M61.5483 37.7402H40.0645V57.4822H61.5483V37.7402Z" fill="#FFFCE5"/>
<path d="M45.0117 42.9668H24.3867V63.5382H45.0117V42.9668Z" fill="#FFFCE5"/>
<path d="M59.2255 35.418H49.3545V59.8051H59.2255V35.418Z" fill="#FFFCE5"/>
<path d="M51.5632 41.2246H17.8857V61.5472H51.5632V41.2246Z" fill="#FFFCE5"/>
<path d="M41.2259 36.5801H20.9033V56.9027H41.2259V36.5801Z" fill="#FFFCE5"/>
<path d="M40.0646 43.5469H27.8711V55.7404H40.0646V43.5469Z" fill="#CCCAB7"/>
<path d="M44.7101 45.2891H32.5166V57.4826H44.7101V45.2891Z" fill="#CCCAB7"/>
<path d="M52.258 42.9668H40.0645V55.1603H52.258V42.9668Z" fill="#CCCAB7"/>
</g>
<defs>
<clipPath id="clip0_3230_2078">
<rect width="110" height="72" fill="white"/>
</clipPath>
</defs>
</svg>
